<svg xmlns="http://www.w3.org/2000/svg" width="330" height="280" viewBox="0 0 330 280">
  <metadata id="thoth-animation" type="application/json"><![CDATA[
{"kind":"thoth.animation.steps","steps":[{"index":0,"label":"step 00","width":16,"height":1},{"index":1,"label":"step 01","width":16,"height":1},{"index":2,"label":"step 02","width":16,"height":1},{"index":3,"label":"step 03","width":16,"height":1},{"index":4,"label":"step 04","width":16,"height":1},{"index":5,"label":"step 05","width":16,"height":1},{"index":6,"label":"step 06","width":16,"height":1},{"index":7,"label":"step 07","width":16,"height":1},{"index":8,"label":"step 08","width":16,"height":1},{"index":9,"label":"step 09","width":16,"height":1},{"index":10,"label":"step 10","width":16,"height":1},{"index":11,"label":"step 11","width":16,"height":1},{"index":12,"label":"step 12","width":16,"height":1},{"index":13,"label":"step 13","width":16,"height":1}],"metadata":{"control":"TextBlock","overflow":"Marquee","speed":3,"width":16}}
  ]]></metadata>
  <rect width="100%" height="100%" fill="#ffffff" />
  <g font-family="ui-monospace, SFMono-Regular, Menlo, Monaco, Consolas, Liberation Mono, monospace" font-size="13" text-rendering="optimizeSpeed">
    <text x="4" y="13" fill="#2c3e50">step 00</text>
    <rect x="170" y="0" width="10" height="18" fill="hsl(47, 62%, 82%)" />
    <text x="171" y="13" fill="#111111">M</text>
    <rect x="180" y="0" width="10" height="18" fill="hsl(47, 62%, 82%)" />
    <text x="181" y="13" fill="#111111">a</text>
    <rect x="190" y="0" width="10" height="18" fill="hsl(47, 62%, 82%)" />
    <text x="191" y="13" fill="#111111">r</text>
    <rect x="200" y="0" width="10" height="18" fill="hsl(47, 62%, 82%)" />
    <text x="201" y="13" fill="#111111">q</text>
    <rect x="210" y="0" width="10" height="18" fill="hsl(47, 62%, 82%)" />
    <text x="211" y="13" fill="#111111">u</text>
    <rect x="220" y="0" width="10" height="18" fill="hsl(47, 62%, 82%)" />
    <text x="221" y="13" fill="#111111">e</text>
    <rect x="230" y="0" width="10" height="18" fill="hsl(47, 62%, 82%)" />
    <text x="231" y="13" fill="#111111">e</text>
    <rect x="240" y="0" width="10" height="18" fill="hsl(47, 62%, 82%)" />
    <rect x="250" y="0" width="10" height="18" fill="hsl(47, 62%, 82%)" />
    <text x="251" y="13" fill="#111111">o</text>
    <rect x="260" y="0" width="10" height="18" fill="hsl(47, 62%, 82%)" />
    <text x="261" y="13" fill="#111111">v</text>
    <rect x="270" y="0" width="10" height="18" fill="hsl(47, 62%, 82%)" />
    <text x="271" y="13" fill="#111111">e</text>
    <rect x="280" y="0" width="10" height="18" fill="hsl(47, 62%, 82%)" />
    <text x="281" y="13" fill="#111111">r</text>
    <rect x="290" y="0" width="10" height="18" fill="hsl(47, 62%, 82%)" />
    <text x="291" y="13" fill="#111111">f</text>
    <rect x="300" y="0" width="10" height="18" fill="hsl(47, 62%, 82%)" />
    <text x="301" y="13" fill="#111111">l</text>
    <rect x="310" y="0" width="10" height="18" fill="hsl(47, 62%, 82%)" />
    <text x="311" y="13" fill="#111111">o</text>
    <rect x="320" y="0" width="10" height="18" fill="hsl(47, 62%, 82%)" />
    <text x="321" y="13" fill="#111111">w</text>
    <text x="4" y="33" fill="#2c3e50">step 01</text>
    <rect x="170" y="20" width="10" height="18" fill="hsl(47, 62%, 82%)" />
    <text x="171" y="33" fill="#111111">a</text>
    <rect x="180" y="20" width="10" height="18" fill="hsl(47, 62%, 82%)" />
    <text x="181" y="33" fill="#111111">r</text>
    <rect x="190" y="20" width="10" height="18" fill="hsl(47, 62%, 82%)" />
    <text x="191" y="33" fill="#111111">q</text>
    <rect x="200" y="20" width="10" height="18" fill="hsl(47, 62%, 82%)" />
    <text x="201" y="33" fill="#111111">u</text>
    <rect x="210" y="20" width="10" height="18" fill="hsl(47, 62%, 82%)" />
    <text x="211" y="33" fill="#111111">e</text>
    <rect x="220" y="20" width="10" height="18" fill="hsl(47, 62%, 82%)" />
    <text x="221" y="33" fill="#111111">e</text>
    <rect x="230" y="20" width="10" height="18" fill="hsl(47, 62%, 82%)" />
    <rect x="240" y="20" width="10" height="18" fill="hsl(47, 62%, 82%)" />
    <text x="241" y="33" fill="#111111">o</text>
    <rect x="250" y="20" width="10" height="18" fill="hsl(47, 62%, 82%)" />
    <text x="251" y="33" fill="#111111">v</text>
    <rect x="260" y="20" width="10" height="18" fill="hsl(47, 62%, 82%)" />
    <text x="261" y="33" fill="#111111">e</text>
    <rect x="270" y="20" width="10" height="18" fill="hsl(47, 62%, 82%)" />
    <text x="271" y="33" fill="#111111">r</text>
    <rect x="280" y="20" width="10" height="18" fill="hsl(47, 62%, 82%)" />
    <text x="281" y="33" fill="#111111">f</text>
    <rect x="290" y="20" width="10" height="18" fill="hsl(47, 62%, 82%)" />
    <text x="291" y="33" fill="#111111">l</text>
    <rect x="300" y="20" width="10" height="18" fill="hsl(47, 62%, 82%)" />
    <text x="301" y="33" fill="#111111">o</text>
    <rect x="310" y="20" width="10" height="18" fill="hsl(47, 62%, 82%)" />
    <text x="311" y="33" fill="#111111">w</text>
    <rect x="320" y="20" width="10" height="18" fill="hsl(47, 62%, 82%)" />
    <text x="4" y="53" fill="#2c3e50">step 02</text>
    <rect x="170" y="40" width="10" height="18" fill="hsl(47, 62%, 82%)" />
    <text x="171" y="53" fill="#111111">r</text>
    <rect x="180" y="40" width="10" height="18" fill="hsl(47, 62%, 82%)" />
    <text x="181" y="53" fill="#111111">q</text>
    <rect x="190" y="40" width="10" height="18" fill="hsl(47, 62%, 82%)" />
    <text x="191" y="53" fill="#111111">u</text>
    <rect x="200" y="40" width="10" height="18" fill="hsl(47, 62%, 82%)" />
    <text x="201" y="53" fill="#111111">e</text>
    <rect x="210" y="40" width="10" height="18" fill="hsl(47, 62%, 82%)" />
    <text x="211" y="53" fill="#111111">e</text>
    <rect x="220" y="40" width="10" height="18" fill="hsl(47, 62%, 82%)" />
    <rect x="230" y="40" width="10" height="18" fill="hsl(47, 62%, 82%)" />
    <text x="231" y="53" fill="#111111">o</text>
    <rect x="240" y="40" width="10" height="18" fill="hsl(47, 62%, 82%)" />
    <text x="241" y="53" fill="#111111">v</text>
    <rect x="250" y="40" width="10" height="18" fill="hsl(47, 62%, 82%)" />
    <text x="251" y="53" fill="#111111">e</text>
    <rect x="260" y="40" width="10" height="18" fill="hsl(47, 62%, 82%)" />
    <text x="261" y="53" fill="#111111">r</text>
    <rect x="270" y="40" width="10" height="18" fill="hsl(47, 62%, 82%)" />
    <text x="271" y="53" fill="#111111">f</text>
    <rect x="280" y="40" width="10" height="18" fill="hsl(47, 62%, 82%)" />
    <text x="281" y="53" fill="#111111">l</text>
    <rect x="290" y="40" width="10" height="18" fill="hsl(47, 62%, 82%)" />
    <text x="291" y="53" fill="#111111">o</text>
    <rect x="300" y="40" width="10" height="18" fill="hsl(47, 62%, 82%)" />
    <text x="301" y="53" fill="#111111">w</text>
    <rect x="310" y="40" width="10" height="18" fill="hsl(47, 62%, 82%)" />
    <rect x="320" y="40" width="10" height="18" fill="hsl(47, 62%, 82%)" />
    <text x="321" y="53" fill="#111111">t</text>
    <text x="4" y="73" fill="#2c3e50">step 03</text>
    <rect x="170" y="60" width="10" height="18" fill="hsl(47, 62%, 82%)" />
    <text x="171" y="73" fill="#111111">q</text>
    <rect x="180" y="60" width="10" height="18" fill="hsl(47, 62%, 82%)" />
    <text x="181" y="73" fill="#111111">u</text>
    <rect x="190" y="60" width="10" height="18" fill="hsl(47, 62%, 82%)" />
    <text x="191" y="73" fill="#111111">e</text>
    <rect x="200" y="60" width="10" height="18" fill="hsl(47, 62%, 82%)" />
    <text x="201" y="73" fill="#111111">e</text>
    <rect x="210" y="60" width="10" height="18" fill="hsl(47, 62%, 82%)" />
    <rect x="220" y="60" width="10" height="18" fill="hsl(47, 62%, 82%)" />
    <text x="221" y="73" fill="#111111">o</text>
    <rect x="230" y="60" width="10" height="18" fill="hsl(47, 62%, 82%)" />
    <text x="231" y="73" fill="#111111">v</text>
    <rect x="240" y="60" width="10" height="18" fill="hsl(47, 62%, 82%)" />
    <text x="241" y="73" fill="#111111">e</text>
    <rect x="250" y="60" width="10" height="18" fill="hsl(47, 62%, 82%)" />
    <text x="251" y="73" fill="#111111">r</text>
    <rect x="260" y="60" width="10" height="18" fill="hsl(47, 62%, 82%)" />
    <text x="261" y="73" fill="#111111">f</text>
    <rect x="270" y="60" width="10" height="18" fill="hsl(47, 62%, 82%)" />
    <text x="271" y="73" fill="#111111">l</text>
    <rect x="280" y="60" width="10" height="18" fill="hsl(47, 62%, 82%)" />
    <text x="281" y="73" fill="#111111">o</text>
    <rect x="290" y="60" width="10" height="18" fill="hsl(47, 62%, 82%)" />
    <text x="291" y="73" fill="#111111">w</text>
    <rect x="300" y="60" width="10" height="18" fill="hsl(47, 62%, 82%)" />
    <rect x="310" y="60" width="10" height="18" fill="hsl(47, 62%, 82%)" />
    <text x="311" y="73" fill="#111111">t</text>
    <rect x="320" y="60" width="10" height="18" fill="hsl(47, 62%, 82%)" />
    <text x="321" y="73" fill="#111111">r</text>
    <text x="4" y="93" fill="#2c3e50">step 04</text>
    <rect x="170" y="80" width="10" height="18" fill="hsl(47, 62%, 82%)" />
    <text x="171" y="93" fill="#111111">u</text>
    <rect x="180" y="80" width="10" height="18" fill="hsl(47, 62%, 82%)" />
    <text x="181" y="93" fill="#111111">e</text>
    <rect x="190" y="80" width="10" height="18" fill="hsl(47, 62%, 82%)" />
    <text x="191" y="93" fill="#111111">e</text>
    <rect x="200" y="80" width="10" height="18" fill="hsl(47, 62%, 82%)" />
    <rect x="210" y="80" width="10" height="18" fill="hsl(47, 62%, 82%)" />
    <text x="211" y="93" fill="#111111">o</text>
    <rect x="220" y="80" width="10" height="18" fill="hsl(47, 62%, 82%)" />
    <text x="221" y="93" fill="#111111">v</text>
    <rect x="230" y="80" width="10" height="18" fill="hsl(47, 62%, 82%)" />
    <text x="231" y="93" fill="#111111">e</text>
    <rect x="240" y="80" width="10" height="18" fill="hsl(47, 62%, 82%)" />
    <text x="241" y="93" fill="#111111">r</text>
    <rect x="250" y="80" width="10" height="18" fill="hsl(47, 62%, 82%)" />
    <text x="251" y="93" fill="#111111">f</text>
    <rect x="260" y="80" width="10" height="18" fill="hsl(47, 62%, 82%)" />
    <text x="261" y="93" fill="#111111">l</text>
    <rect x="270" y="80" width="10" height="18" fill="hsl(47, 62%, 82%)" />
    <text x="271" y="93" fill="#111111">o</text>
    <rect x="280" y="80" width="10" height="18" fill="hsl(47, 62%, 82%)" />
    <text x="281" y="93" fill="#111111">w</text>
    <rect x="290" y="80" width="10" height="18" fill="hsl(47, 62%, 82%)" />
    <rect x="300" y="80" width="10" height="18" fill="hsl(47, 62%, 82%)" />
    <text x="301" y="93" fill="#111111">t</text>
    <rect x="310" y="80" width="10" height="18" fill="hsl(47, 62%, 82%)" />
    <text x="311" y="93" fill="#111111">r</text>
    <rect x="320" y="80" width="10" height="18" fill="hsl(47, 62%, 82%)" />
    <text x="321" y="93" fill="#111111">a</text>
    <text x="4" y="113" fill="#2c3e50">step 05</text>
    <rect x="170" y="100" width="10" height="18" fill="hsl(47, 62%, 82%)" />
    <text x="171" y="113" fill="#111111">e</text>
    <rect x="180" y="100" width="10" height="18" fill="hsl(47, 62%, 82%)" />
    <text x="181" y="113" fill="#111111">e</text>
    <rect x="190" y="100" width="10" height="18" fill="hsl(47, 62%, 82%)" />
    <rect x="200" y="100" width="10" height="18" fill="hsl(47, 62%, 82%)" />
    <text x="201" y="113" fill="#111111">o</text>
    <rect x="210" y="100" width="10" height="18" fill="hsl(47, 62%, 82%)" />
    <text x="211" y="113" fill="#111111">v</text>
    <rect x="220" y="100" width="10" height="18" fill="hsl(47, 62%, 82%)" />
    <text x="221" y="113" fill="#111111">e</text>
    <rect x="230" y="100" width="10" height="18" fill="hsl(47, 62%, 82%)" />
    <text x="231" y="113" fill="#111111">r</text>
    <rect x="240" y="100" width="10" height="18" fill="hsl(47, 62%, 82%)" />
    <text x="241" y="113" fill="#111111">f</text>
    <rect x="250" y="100" width="10" height="18" fill="hsl(47, 62%, 82%)" />
    <text x="251" y="113" fill="#111111">l</text>
    <rect x="260" y="100" width="10" height="18" fill="hsl(47, 62%, 82%)" />
    <text x="261" y="113" fill="#111111">o</text>
    <rect x="270" y="100" width="10" height="18" fill="hsl(47, 62%, 82%)" />
    <text x="271" y="113" fill="#111111">w</text>
    <rect x="280" y="100" width="10" height="18" fill="hsl(47, 62%, 82%)" />
    <rect x="290" y="100" width="10" height="18" fill="hsl(47, 62%, 82%)" />
    <text x="291" y="113" fill="#111111">t</text>
    <rect x="300" y="100" width="10" height="18" fill="hsl(47, 62%, 82%)" />
    <text x="301" y="113" fill="#111111">r</text>
    <rect x="310" y="100" width="10" height="18" fill="hsl(47, 62%, 82%)" />
    <text x="311" y="113" fill="#111111">a</text>
    <rect x="320" y="100" width="10" height="18" fill="hsl(47, 62%, 82%)" />
    <text x="321" y="113" fill="#111111">v</text>
    <text x="4" y="133" fill="#2c3e50">step 06</text>
    <rect x="170" y="120" width="10" height="18" fill="hsl(47, 62%, 82%)" />
    <text x="171" y="133" fill="#111111">e</text>
    <rect x="180" y="120" width="10" height="18" fill="hsl(47, 62%, 82%)" />
    <rect x="190" y="120" width="10" height="18" fill="hsl(47, 62%, 82%)" />
    <text x="191" y="133" fill="#111111">o</text>
    <rect x="200" y="120" width="10" height="18" fill="hsl(47, 62%, 82%)" />
    <text x="201" y="133" fill="#111111">v</text>
    <rect x="210" y="120" width="10" height="18" fill="hsl(47, 62%, 82%)" />
    <text x="211" y="133" fill="#111111">e</text>
    <rect x="220" y="120" width="10" height="18" fill="hsl(47, 62%, 82%)" />
    <text x="221" y="133" fill="#111111">r</text>
    <rect x="230" y="120" width="10" height="18" fill="hsl(47, 62%, 82%)" />
    <text x="231" y="133" fill="#111111">f</text>
    <rect x="240" y="120" width="10" height="18" fill="hsl(47, 62%, 82%)" />
    <text x="241" y="133" fill="#111111">l</text>
    <rect x="250" y="120" width="10" height="18" fill="hsl(47, 62%, 82%)" />
    <text x="251" y="133" fill="#111111">o</text>
    <rect x="260" y="120" width="10" height="18" fill="hsl(47, 62%, 82%)" />
    <text x="261" y="133" fill="#111111">w</text>
    <rect x="270" y="120" width="10" height="18" fill="hsl(47, 62%, 82%)" />
    <rect x="280" y="120" width="10" height="18" fill="hsl(47, 62%, 82%)" />
    <text x="281" y="133" fill="#111111">t</text>
    <rect x="290" y="120" width="10" height="18" fill="hsl(47, 62%, 82%)" />
    <text x="291" y="133" fill="#111111">r</text>
    <rect x="300" y="120" width="10" height="18" fill="hsl(47, 62%, 82%)" />
    <text x="301" y="133" fill="#111111">a</text>
    <rect x="310" y="120" width="10" height="18" fill="hsl(47, 62%, 82%)" />
    <text x="311" y="133" fill="#111111">v</text>
    <rect x="320" y="120" width="10" height="18" fill="hsl(47, 62%, 82%)" />
    <text x="321" y="133" fill="#111111">e</text>
    <text x="4" y="153" fill="#2c3e50">step 07</text>
    <rect x="170" y="140" width="10" height="18" fill="hsl(47, 62%, 82%)" />
    <rect x="180" y="140" width="10" height="18" fill="hsl(47, 62%, 82%)" />
    <text x="181" y="153" fill="#111111">o</text>
    <rect x="190" y="140" width="10" height="18" fill="hsl(47, 62%, 82%)" />
    <text x="191" y="153" fill="#111111">v</text>
    <rect x="200" y="140" width="10" height="18" fill="hsl(47, 62%, 82%)" />
    <text x="201" y="153" fill="#111111">e</text>
    <rect x="210" y="140" width="10" height="18" fill="hsl(47, 62%, 82%)" />
    <text x="211" y="153" fill="#111111">r</text>
    <rect x="220" y="140" width="10" height="18" fill="hsl(47, 62%, 82%)" />
    <text x="221" y="153" fill="#111111">f</text>
    <rect x="230" y="140" width="10" height="18" fill="hsl(47, 62%, 82%)" />
    <text x="231" y="153" fill="#111111">l</text>
    <rect x="240" y="140" width="10" height="18" fill="hsl(47, 62%, 82%)" />
    <text x="241" y="153" fill="#111111">o</text>
    <rect x="250" y="140" width="10" height="18" fill="hsl(47, 62%, 82%)" />
    <text x="251" y="153" fill="#111111">w</text>
    <rect x="260" y="140" width="10" height="18" fill="hsl(47, 62%, 82%)" />
    <rect x="270" y="140" width="10" height="18" fill="hsl(47, 62%, 82%)" />
    <text x="271" y="153" fill="#111111">t</text>
    <rect x="280" y="140" width="10" height="18" fill="hsl(47, 62%, 82%)" />
    <text x="281" y="153" fill="#111111">r</text>
    <rect x="290" y="140" width="10" height="18" fill="hsl(47, 62%, 82%)" />
    <text x="291" y="153" fill="#111111">a</text>
    <rect x="300" y="140" width="10" height="18" fill="hsl(47, 62%, 82%)" />
    <text x="301" y="153" fill="#111111">v</text>
    <rect x="310" y="140" width="10" height="18" fill="hsl(47, 62%, 82%)" />
    <text x="311" y="153" fill="#111111">e</text>
    <rect x="320" y="140" width="10" height="18" fill="hsl(47, 62%, 82%)" />
    <text x="321" y="153" fill="#111111">l</text>
    <text x="4" y="173" fill="#2c3e50">step 08</text>
    <rect x="170" y="160" width="10" height="18" fill="hsl(47, 62%, 82%)" />
    <text x="171" y="173" fill="#111111">o</text>
    <rect x="180" y="160" width="10" height="18" fill="hsl(47, 62%, 82%)" />
    <text x="181" y="173" fill="#111111">v</text>
    <rect x="190" y="160" width="10" height="18" fill="hsl(47, 62%, 82%)" />
    <text x="191" y="173" fill="#111111">e</text>
    <rect x="200" y="160" width="10" height="18" fill="hsl(47, 62%, 82%)" />
    <text x="201" y="173" fill="#111111">r</text>
    <rect x="210" y="160" width="10" height="18" fill="hsl(47, 62%, 82%)" />
    <text x="211" y="173" fill="#111111">f</text>
    <rect x="220" y="160" width="10" height="18" fill="hsl(47, 62%, 82%)" />
    <text x="221" y="173" fill="#111111">l</text>
    <rect x="230" y="160" width="10" height="18" fill="hsl(47, 62%, 82%)" />
    <text x="231" y="173" fill="#111111">o</text>
    <rect x="240" y="160" width="10" height="18" fill="hsl(47, 62%, 82%)" />
    <text x="241" y="173" fill="#111111">w</text>
    <rect x="250" y="160" width="10" height="18" fill="hsl(47, 62%, 82%)" />
    <rect x="260" y="160" width="10" height="18" fill="hsl(47, 62%, 82%)" />
    <text x="261" y="173" fill="#111111">t</text>
    <rect x="270" y="160" width="10" height="18" fill="hsl(47, 62%, 82%)" />
    <text x="271" y="173" fill="#111111">r</text>
    <rect x="280" y="160" width="10" height="18" fill="hsl(47, 62%, 82%)" />
    <text x="281" y="173" fill="#111111">a</text>
    <rect x="290" y="160" width="10" height="18" fill="hsl(47, 62%, 82%)" />
    <text x="291" y="173" fill="#111111">v</text>
    <rect x="300" y="160" width="10" height="18" fill="hsl(47, 62%, 82%)" />
    <text x="301" y="173" fill="#111111">e</text>
    <rect x="310" y="160" width="10" height="18" fill="hsl(47, 62%, 82%)" />
    <text x="311" y="173" fill="#111111">l</text>
    <rect x="320" y="160" width="10" height="18" fill="hsl(47, 62%, 82%)" />
    <text x="321" y="173" fill="#111111">s</text>
    <text x="4" y="193" fill="#2c3e50">step 09</text>
    <rect x="170" y="180" width="10" height="18" fill="hsl(47, 62%, 82%)" />
    <text x="171" y="193" fill="#111111">v</text>
    <rect x="180" y="180" width="10" height="18" fill="hsl(47, 62%, 82%)" />
    <text x="181" y="193" fill="#111111">e</text>
    <rect x="190" y="180" width="10" height="18" fill="hsl(47, 62%, 82%)" />
    <text x="191" y="193" fill="#111111">r</text>
    <rect x="200" y="180" width="10" height="18" fill="hsl(47, 62%, 82%)" />
    <text x="201" y="193" fill="#111111">f</text>
    <rect x="210" y="180" width="10" height="18" fill="hsl(47, 62%, 82%)" />
    <text x="211" y="193" fill="#111111">l</text>
    <rect x="220" y="180" width="10" height="18" fill="hsl(47, 62%, 82%)" />
    <text x="221" y="193" fill="#111111">o</text>
    <rect x="230" y="180" width="10" height="18" fill="hsl(47, 62%, 82%)" />
    <text x="231" y="193" fill="#111111">w</text>
    <rect x="240" y="180" width="10" height="18" fill="hsl(47, 62%, 82%)" />
    <rect x="250" y="180" width="10" height="18" fill="hsl(47, 62%, 82%)" />
    <text x="251" y="193" fill="#111111">t</text>
    <rect x="260" y="180" width="10" height="18" fill="hsl(47, 62%, 82%)" />
    <text x="261" y="193" fill="#111111">r</text>
    <rect x="270" y="180" width="10" height="18" fill="hsl(47, 62%, 82%)" />
    <text x="271" y="193" fill="#111111">a</text>
    <rect x="280" y="180" width="10" height="18" fill="hsl(47, 62%, 82%)" />
    <text x="281" y="193" fill="#111111">v</text>
    <rect x="290" y="180" width="10" height="18" fill="hsl(47, 62%, 82%)" />
    <text x="291" y="193" fill="#111111">e</text>
    <rect x="300" y="180" width="10" height="18" fill="hsl(47, 62%, 82%)" />
    <text x="301" y="193" fill="#111111">l</text>
    <rect x="310" y="180" width="10" height="18" fill="hsl(47, 62%, 82%)" />
    <text x="311" y="193" fill="#111111">s</text>
    <rect x="320" y="180" width="10" height="18" fill="hsl(47, 62%, 82%)" />
    <text x="4" y="213" fill="#2c3e50">step 10</text>
    <rect x="170" y="200" width="10" height="18" fill="hsl(47, 62%, 82%)" />
    <text x="171" y="213" fill="#111111">e</text>
    <rect x="180" y="200" width="10" height="18" fill="hsl(47, 62%, 82%)" />
    <text x="181" y="213" fill="#111111">r</text>
    <rect x="190" y="200" width="10" height="18" fill="hsl(47, 62%, 82%)" />
    <text x="191" y="213" fill="#111111">f</text>
    <rect x="200" y="200" width="10" height="18" fill="hsl(47, 62%, 82%)" />
    <text x="201" y="213" fill="#111111">l</text>
    <rect x="210" y="200" width="10" height="18" fill="hsl(47, 62%, 82%)" />
    <text x="211" y="213" fill="#111111">o</text>
    <rect x="220" y="200" width="10" height="18" fill="hsl(47, 62%, 82%)" />
    <text x="221" y="213" fill="#111111">w</text>
    <rect x="230" y="200" width="10" height="18" fill="hsl(47, 62%, 82%)" />
    <rect x="240" y="200" width="10" height="18" fill="hsl(47, 62%, 82%)" />
    <text x="241" y="213" fill="#111111">t</text>
    <rect x="250" y="200" width="10" height="18" fill="hsl(47, 62%, 82%)" />
    <text x="251" y="213" fill="#111111">r</text>
    <rect x="260" y="200" width="10" height="18" fill="hsl(47, 62%, 82%)" />
    <text x="261" y="213" fill="#111111">a</text>
    <rect x="270" y="200" width="10" height="18" fill="hsl(47, 62%, 82%)" />
    <text x="271" y="213" fill="#111111">v</text>
    <rect x="280" y="200" width="10" height="18" fill="hsl(47, 62%, 82%)" />
    <text x="281" y="213" fill="#111111">e</text>
    <rect x="290" y="200" width="10" height="18" fill="hsl(47, 62%, 82%)" />
    <text x="291" y="213" fill="#111111">l</text>
    <rect x="300" y="200" width="10" height="18" fill="hsl(47, 62%, 82%)" />
    <text x="301" y="213" fill="#111111">s</text>
    <rect x="310" y="200" width="10" height="18" fill="hsl(47, 62%, 82%)" />
    <rect x="320" y="200" width="10" height="18" fill="hsl(47, 62%, 82%)" />
    <text x="321" y="213" fill="#111111">r</text>
    <text x="4" y="233" fill="#2c3e50">step 11</text>
    <rect x="170" y="220" width="10" height="18" fill="hsl(47, 62%, 82%)" />
    <text x="171" y="233" fill="#111111">r</text>
    <rect x="180" y="220" width="10" height="18" fill="hsl(47, 62%, 82%)" />
    <text x="181" y="233" fill="#111111">f</text>
    <rect x="190" y="220" width="10" height="18" fill="hsl(47, 62%, 82%)" />
    <text x="191" y="233" fill="#111111">l</text>
    <rect x="200" y="220" width="10" height="18" fill="hsl(47, 62%, 82%)" />
    <text x="201" y="233" fill="#111111">o</text>
    <rect x="210" y="220" width="10" height="18" fill="hsl(47, 62%, 82%)" />
    <text x="211" y="233" fill="#111111">w</text>
    <rect x="220" y="220" width="10" height="18" fill="hsl(47, 62%, 82%)" />
    <rect x="230" y="220" width="10" height="18" fill="hsl(47, 62%, 82%)" />
    <text x="231" y="233" fill="#111111">t</text>
    <rect x="240" y="220" width="10" height="18" fill="hsl(47, 62%, 82%)" />
    <text x="241" y="233" fill="#111111">r</text>
    <rect x="250" y="220" width="10" height="18" fill="hsl(47, 62%, 82%)" />
    <text x="251" y="233" fill="#111111">a</text>
    <rect x="260" y="220" width="10" height="18" fill="hsl(47, 62%, 82%)" />
    <text x="261" y="233" fill="#111111">v</text>
    <rect x="270" y="220" width="10" height="18" fill="hsl(47, 62%, 82%)" />
    <text x="271" y="233" fill="#111111">e</text>
    <rect x="280" y="220" width="10" height="18" fill="hsl(47, 62%, 82%)" />
    <text x="281" y="233" fill="#111111">l</text>
    <rect x="290" y="220" width="10" height="18" fill="hsl(47, 62%, 82%)" />
    <text x="291" y="233" fill="#111111">s</text>
    <rect x="300" y="220" width="10" height="18" fill="hsl(47, 62%, 82%)" />
    <rect x="310" y="220" width="10" height="18" fill="hsl(47, 62%, 82%)" />
    <text x="311" y="233" fill="#111111">r</text>
    <rect x="320" y="220" width="10" height="18" fill="hsl(47, 62%, 82%)" />
    <text x="321" y="233" fill="#111111">i</text>
    <text x="4" y="253" fill="#2c3e50">step 12</text>
    <rect x="170" y="240" width="10" height="18" fill="hsl(47, 62%, 82%)" />
    <text x="171" y="253" fill="#111111">f</text>
    <rect x="180" y="240" width="10" height="18" fill="hsl(47, 62%, 82%)" />
    <text x="181" y="253" fill="#111111">l</text>
    <rect x="190" y="240" width="10" height="18" fill="hsl(47, 62%, 82%)" />
    <text x="191" y="253" fill="#111111">o</text>
    <rect x="200" y="240" width="10" height="18" fill="hsl(47, 62%, 82%)" />
    <text x="201" y="253" fill="#111111">w</text>
    <rect x="210" y="240" width="10" height="18" fill="hsl(47, 62%, 82%)" />
    <rect x="220" y="240" width="10" height="18" fill="hsl(47, 62%, 82%)" />
    <text x="221" y="253" fill="#111111">t</text>
    <rect x="230" y="240" width="10" height="18" fill="hsl(47, 62%, 82%)" />
    <text x="231" y="253" fill="#111111">r</text>
    <rect x="240" y="240" width="10" height="18" fill="hsl(47, 62%, 82%)" />
    <text x="241" y="253" fill="#111111">a</text>
    <rect x="250" y="240" width="10" height="18" fill="hsl(47, 62%, 82%)" />
    <text x="251" y="253" fill="#111111">v</text>
    <rect x="260" y="240" width="10" height="18" fill="hsl(47, 62%, 82%)" />
    <text x="261" y="253" fill="#111111">e</text>
    <rect x="270" y="240" width="10" height="18" fill="hsl(47, 62%, 82%)" />
    <text x="271" y="253" fill="#111111">l</text>
    <rect x="280" y="240" width="10" height="18" fill="hsl(47, 62%, 82%)" />
    <text x="281" y="253" fill="#111111">s</text>
    <rect x="290" y="240" width="10" height="18" fill="hsl(47, 62%, 82%)" />
    <rect x="300" y="240" width="10" height="18" fill="hsl(47, 62%, 82%)" />
    <text x="301" y="253" fill="#111111">r</text>
    <rect x="310" y="240" width="10" height="18" fill="hsl(47, 62%, 82%)" />
    <text x="311" y="253" fill="#111111">i</text>
    <rect x="320" y="240" width="10" height="18" fill="hsl(47, 62%, 82%)" />
    <text x="321" y="253" fill="#111111">g</text>
    <text x="4" y="273" fill="#2c3e50">step 13</text>
    <rect x="170" y="260" width="10" height="18" fill="hsl(47, 62%, 82%)" />
    <text x="171" y="273" fill="#111111">l</text>
    <rect x="180" y="260" width="10" height="18" fill="hsl(47, 62%, 82%)" />
    <text x="181" y="273" fill="#111111">o</text>
    <rect x="190" y="260" width="10" height="18" fill="hsl(47, 62%, 82%)" />
    <text x="191" y="273" fill="#111111">w</text>
    <rect x="200" y="260" width="10" height="18" fill="hsl(47, 62%, 82%)" />
    <rect x="210" y="260" width="10" height="18" fill="hsl(47, 62%, 82%)" />
    <text x="211" y="273" fill="#111111">t</text>
    <rect x="220" y="260" width="10" height="18" fill="hsl(47, 62%, 82%)" />
    <text x="221" y="273" fill="#111111">r</text>
    <rect x="230" y="260" width="10" height="18" fill="hsl(47, 62%, 82%)" />
    <text x="231" y="273" fill="#111111">a</text>
    <rect x="240" y="260" width="10" height="18" fill="hsl(47, 62%, 82%)" />
    <text x="241" y="273" fill="#111111">v</text>
    <rect x="250" y="260" width="10" height="18" fill="hsl(47, 62%, 82%)" />
    <text x="251" y="273" fill="#111111">e</text>
    <rect x="260" y="260" width="10" height="18" fill="hsl(47, 62%, 82%)" />
    <text x="261" y="273" fill="#111111">l</text>
    <rect x="270" y="260" width="10" height="18" fill="hsl(47, 62%, 82%)" />
    <text x="271" y="273" fill="#111111">s</text>
    <rect x="280" y="260" width="10" height="18" fill="hsl(47, 62%, 82%)" />
    <rect x="290" y="260" width="10" height="18" fill="hsl(47, 62%, 82%)" />
    <text x="291" y="273" fill="#111111">r</text>
    <rect x="300" y="260" width="10" height="18" fill="hsl(47, 62%, 82%)" />
    <text x="301" y="273" fill="#111111">i</text>
    <rect x="310" y="260" width="10" height="18" fill="hsl(47, 62%, 82%)" />
    <text x="311" y="273" fill="#111111">g</text>
    <rect x="320" y="260" width="10" height="18" fill="hsl(47, 62%, 82%)" />
    <text x="321" y="273" fill="#111111">h</text>
  </g>
</svg>
