<svg xmlns="http://www.w3.org/2000/svg" width="60" height="36" viewBox="0 0 60 36">
  <metadata id="thoth-snapshot" type="application/json"><![CDATA[
{"Width":6,"Height":2,"Cells":[{"X":0,"Y":0,"GlyphId":72,"StyleIndex":0,"Width":1,"Glyph":"H"},{"X":1,"Y":0,"GlyphId":101,"StyleIndex":0,"Width":1,"Glyph":"e"},{"X":2,"Y":0,"GlyphId":108,"StyleIndex":0,"Width":1,"Glyph":"l"},{"X":3,"Y":0,"GlyphId":108,"StyleIndex":0,"Width":1,"Glyph":"l"},{"X":4,"Y":0,"GlyphId":111,"StyleIndex":0,"Width":1,"Glyph":"o"},{"X":5,"Y":0,"GlyphId":32,"StyleIndex":0,"Width":1,"Glyph":" "},{"X":0,"Y":1,"GlyphId":119,"StyleIndex":0,"Width":1,"Glyph":"w"},{"X":1,"Y":1,"GlyphId":111,"StyleIndex":0,"Width":1,"Glyph":"o"},{"X":2,"Y":1,"GlyphId":114,"StyleIndex":0,"Width":1,"Glyph":"r"},{"X":3,"Y":1,"GlyphId":108,"StyleIndex":0,"Width":1,"Glyph":"l"},{"X":4,"Y":1,"GlyphId":100,"StyleIndex":0,"Width":1,"Glyph":"d"},{"X":5,"Y":1,"GlyphId":0,"StyleIndex":0,"Width":0,"Glyph":null}]}
  ]]></metadata>
  <rect width="100%" height="100%" fill="#ffffff" />
  <g font-family="ui-monospace, SFMono-Regular, Menlo, Monaco, Consolas, Liberation Mono, monospace" font-size="13" text-rendering="optimizeSpeed">
    <rect x="0" y="0" width="10" height="18" fill="#ffffff" />
    <text x="1" y="13" fill="#111111">H</text>
    <rect x="10" y="0" width="10" height="18" fill="#ffffff" />
    <text x="11" y="13" fill="#111111">e</text>
    <rect x="20" y="0" width="10" height="18" fill="#ffffff" />
    <text x="21" y="13" fill="#111111">l</text>
    <rect x="30" y="0" width="10" height="18" fill="#ffffff" />
    <text x="31" y="13" fill="#111111">l</text>
    <rect x="40" y="0" width="10" height="18" fill="#ffffff" />
    <text x="41" y="13" fill="#111111">o</text>
    <rect x="50" y="0" width="10" height="18" fill="#ffffff" />
    <rect x="0" y="18" width="10" height="18" fill="#ffffff" />
    <text x="1" y="31" fill="#111111">w</text>
    <rect x="10" y="18" width="10" height="18" fill="#ffffff" />
    <text x="11" y="31" fill="#111111">o</text>
    <rect x="20" y="18" width="10" height="18" fill="#ffffff" />
    <text x="21" y="31" fill="#111111">r</text>
    <rect x="30" y="18" width="10" height="18" fill="#ffffff" />
    <text x="31" y="31" fill="#111111">l</text>
    <rect x="40" y="18" width="10" height="18" fill="#ffffff" />
    <text x="41" y="31" fill="#111111">d</text>
  </g>
</svg>
