<svg xmlns="http://www.w3.org/2000/svg" width="800" height="432" viewBox="0 0 800 432">
  <rect width="100%" height="100%" fill="#0d1117"/>
  <g font-family="ui-monospace, SFMono-Regular, Menlo, Monaco, Consolas, Liberation Mono, monospace" font-size="13" text-rendering="optimizeSpeed">
    <g>
      <text x="101 111 121 131 141 151 161 171 181 191 201 211 221 231 241 251 261 271 281 291 301 311 321 331 341 351 361 371 381 391 401 411 421 431 441 451 461 471 481" y="211" fill="#50c878">███████████████████████████████████████</text>
      <text x="491 501 511 521 531 541 551 561 571 581 591 601 611 621 631 641 651 661 671 681 691" y="211" fill="#283c2d">░░░░░░░░░░░░░░░░░░░░░</text>
    </g>
  </g>
</svg>
