<svg xmlns="http://www.w3.org/2000/svg" width="800" height="432" viewBox="0 0 800 432">
  <rect width="100%" height="100%" fill="#0d1117"/>
  <g font-family="ui-monospace, SFMono-Regular, Menlo, Monaco, Consolas, Liberation Mono, monospace" font-size="13" text-rendering="optimizeSpeed">
    <g>
      <rect x="0" y="180" width="800" height="18" fill="#323250"/>
      <text x="1" y="193" fill="#2ea043">◉</text>
      <text x="21 31 41 51 61 71 91 101 111" y="193" fill="#e0d2ae">OptionOne</text>
      <rect x="0" y="198" width="800" height="18" fill="#1e1e28"/>
      <text x="1 21 31 41 51 61 71 91 101 111" y="211" fill="#e0d2ae">○OptionTwo</text>
      <rect x="0" y="216" width="800" height="18" fill="#1e1e28"/>
      <text x="1 21 31 41 51 61 71 91 101 111 121 131" y="229" fill="#e0d2ae">○OptionThree</text>
      <rect x="0" y="234" width="800" height="18" fill="#1e1e28"/>
      <text x="1 21 31 41 51 61 71 91 101 111 121" y="247" fill="#e0d2ae">○OptionFour</text>
    </g>
  </g>
</svg>
