<svg xmlns="http://www.w3.org/2000/svg" width="800" height="432" viewBox="0 0 800 432">
  <rect width="100%" height="100%" fill="#0d1117"/>
  <g font-family="ui-monospace, SFMono-Regular, Menlo, Monaco, Consolas, Liberation Mono, monospace" font-size="13" text-rendering="optimizeSpeed">
    <g>
      <text x="1 11 21 31 81 91 101 111 121 131 141 151 161 171 181 741 751 761 771 781 791" y="193" fill="#e0d2ae">NameDescriptionStatus</text>
      <text x="1 11 21 31 41 51 71 81 101 111 121 131 151 161 171 181 191 201 221 231 241 251 271 281 291 301 321 331 341 351 361 371 381 741 751 761 771 781 791" y="211" fill="#e0d2ae">WidgetAAtestwidgetwithsomecontentActive</text>
      <text x="1 11 21 31 41 51 71 81 91 101 111 121 131 141 161 171 181 191 201 211 231 241 251 261 281 291 301 311 331 341 351 361 371 381 391 741 751 761 771" y="229" fill="#e0d2ae">WidgetBAnotherwidgetwithmorecontentIdle</text>
      <text x="1 11 21 31 41 51 71 81 101 111 121 131 141 161 171 181 191 201 211 231 241 251 261 281 291 301 311 331 341 351 361 381 391 401 411 741 751 761 771 781" y="247" fill="#e0d2ae">WidgetCAthirdwidgetwithevenmoretextError</text>
    </g>
  </g>
</svg>
