<svg xmlns="http://www.w3.org/2000/svg" width="240" height="144" viewBox="0 0 240 144">
  <metadata id="thoth-snapshot" type="application/json"><![CDATA[
{"Width":24,"Height":8,"Cells":[{"X":0,"Y":0,"GlyphId":9556,"StyleIndex":0,"Width":1,"Glyph":"\u2554"},{"X":1,"Y":0,"GlyphId":9552,"StyleIndex":0,"Width":1,"Glyph":"\u2550"},{"X":2,"Y":0,"GlyphId":9552,"StyleIndex":0,"Width":1,"Glyph":"\u2550"},{"X":3,"Y":0,"GlyphId":9552,"StyleIndex":0,"Width":1,"Glyph":"\u2550"},{"X":4,"Y":0,"GlyphId":9552,"StyleIndex":0,"Width":1,"Glyph":"\u2550"},{"X":5,"Y":0,"GlyphId":9552,"StyleIndex":0,"Width":1,"Glyph":"\u2550"},{"X":6,"Y":0,"GlyphId":9552,"StyleIndex":0,"Width":1,"Glyph":"\u2550"},{"X":7,"Y":0,"GlyphId":9552,"StyleIndex":0,"Width":1,"Glyph":"\u2550"},{"X":8,"Y":0,"GlyphId":9552,"StyleIndex":0,"Width":1,"Glyph":"\u2550"},{"X":9,"Y":0,"GlyphId":9552,"StyleIndex":0,"Width":1,"Glyph":"\u2550"},{"X":10,"Y":0,"GlyphId":9552,"StyleIndex":0,"Width":1,"Glyph":"\u2550"},{"X":11,"Y":0,"GlyphId":9552,"StyleIndex":0,"Width":1,"Glyph":"\u2550"},{"X":12,"Y":0,"GlyphId":9552,"StyleIndex":0,"Width":1,"Glyph":"\u2550"},{"X":13,"Y":0,"GlyphId":9552,"StyleIndex":0,"Width":1,"Glyph":"\u2550"},{"X":14,"Y":0,"GlyphId":9552,"StyleIndex":0,"Width":1,"Glyph":"\u2550"},{"X":15,"Y":0,"GlyphId":9552,"StyleIndex":0,"Width":1,"Glyph":"\u2550"},{"X":16,"Y":0,"GlyphId":9552,"StyleIndex":0,"Width":1,"Glyph":"\u2550"},{"X":17,"Y":0,"GlyphId":9552,"StyleIndex":0,"Width":1,"Glyph":"\u2550"},{"X":18,"Y":0,"GlyphId":9552,"StyleIndex":0,"Width":1,"Glyph":"\u2550"},{"X":19,"Y":0,"GlyphId":9552,"StyleIndex":0,"Width":1,"Glyph":"\u2550"},{"X":20,"Y":0,"GlyphId":9552,"StyleIndex":0,"Width":1,"Glyph":"\u2550"},{"X":21,"Y":0,"GlyphId":9552,"StyleIndex":0,"Width":1,"Glyph":"\u2550"},{"X":22,"Y":0,"GlyphId":9552,"StyleIndex":0,"Width":1,"Glyph":"\u2550"},{"X":23,"Y":0,"GlyphId":9559,"StyleIndex":0,"Width":1,"Glyph":"\u2557"},{"X":0,"Y":1,"GlyphId":9553,"StyleIndex":0,"Width":1,"Glyph":"\u2551"},{"X":1,"Y":1,"GlyphId":46,"StyleIndex":0,"Width":1,"Glyph":"."},{"X":2,"Y":1,"GlyphId":46,"StyleIndex":0,"Width":1,"Glyph":"."},{"X":3,"Y":1,"GlyphId":46,"StyleIndex":0,"Width":1,"Glyph":"."},{"X":4,"Y":1,"GlyphId":46,"StyleIndex":0,"Width":1,"Glyph":"."},{"X":5,"Y":1,"GlyphId":46,"StyleIndex":0,"Width":1,"Glyph":"."},{"X":6,"Y":1,"GlyphId":46,"StyleIndex":0,"Width":1,"Glyph":"."},{"X":7,"Y":1,"GlyphId":46,"StyleIndex":0,"Width":1,"Glyph":"."},{"X":8,"Y":1,"GlyphId":46,"StyleIndex":0,"Width":1,"Glyph":"."},{"X":9,"Y":1,"GlyphId":46,"StyleIndex":0,"Width":1,"Glyph":"."},{"X":10,"Y":1,"GlyphId":46,"StyleIndex":0,"Width":1,"Glyph":"."},{"X":11,"Y":1,"GlyphId":46,"StyleIndex":0,"Width":1,"Glyph":"."},{"X":12,"Y":1,"GlyphId":46,"StyleIndex":0,"Width":1,"Glyph":"."},{"X":13,"Y":1,"GlyphId":46,"StyleIndex":0,"Width":1,"Glyph":"."},{"X":14,"Y":1,"GlyphId":46,"StyleIndex":0,"Width":1,"Glyph":"."},{"X":15,"Y":1,"GlyphId":46,"StyleIndex":0,"Width":1,"Glyph":"."},{"X":16,"Y":1,"GlyphId":46,"StyleIndex":0,"Width":1,"Glyph":"."},{"X":17,"Y":1,"GlyphId":46,"StyleIndex":0,"Width":1,"Glyph":"."},{"X":18,"Y":1,"GlyphId":46,"StyleIndex":0,"Width":1,"Glyph":"."},{"X":19,"Y":1,"GlyphId":46,"StyleIndex":0,"Width":1,"Glyph":"."},{"X":20,"Y":1,"GlyphId":46,"StyleIndex":0,"Width":1,"Glyph":"."},{"X":21,"Y":1,"GlyphId":46,"StyleIndex":0,"Width":1,"Glyph":"."},{"X":22,"Y":1,"GlyphId":46,"StyleIndex":0,"Width":1,"Glyph":"."},{"X":23,"Y":1,"GlyphId":9553,"StyleIndex":0,"Width":1,"Glyph":"\u2551"},{"X":0,"Y":2,"GlyphId":9553,"StyleIndex":0,"Width":1,"Glyph":"\u2551"},{"X":1,"Y":2,"GlyphId":46,"StyleIndex":0,"Width":1,"Glyph":"."},{"X":2,"Y":2,"GlyphId":46,"StyleIndex":0,"Width":1,"Glyph":"."},{"X":3,"Y":2,"GlyphId":46,"StyleIndex":0,"Width":1,"Glyph":"."},{"X":4,"Y":2,"GlyphId":46,"StyleIndex":0,"Width":1,"Glyph":"."},{"X":5,"Y":2,"GlyphId":46,"StyleIndex":0,"Width":1,"Glyph":"."},{"X":6,"Y":2,"GlyphId":46,"StyleIndex":0,"Width":1,"Glyph":"."},{"X":7,"Y":2,"GlyphId":46,"StyleIndex":0,"Width":1,"Glyph":"."},{"X":8,"Y":2,"GlyphId":46,"StyleIndex":0,"Width":1,"Glyph":"."},{"X":9,"Y":2,"GlyphId":46,"StyleIndex":0,"Width":1,"Glyph":"."},{"X":10,"Y":2,"GlyphId":46,"StyleIndex":0,"Width":1,"Glyph":"."},{"X":11,"Y":2,"GlyphId":46,"StyleIndex":0,"Width":1,"Glyph":"."},{"X":12,"Y":2,"GlyphId":46,"StyleIndex":0,"Width":1,"Glyph":"."},{"X":13,"Y":2,"GlyphId":46,"StyleIndex":0,"Width":1,"Glyph":"."},{"X":14,"Y":2,"GlyphId":46,"StyleIndex":0,"Width":1,"Glyph":"."},{"X":15,"Y":2,"GlyphId":46,"StyleIndex":0,"Width":1,"Glyph":"."},{"X":16,"Y":2,"GlyphId":46,"StyleIndex":0,"Width":1,"Glyph":"."},{"X":17,"Y":2,"GlyphId":46,"StyleIndex":0,"Width":1,"Glyph":"."},{"X":18,"Y":2,"GlyphId":46,"StyleIndex":0,"Width":1,"Glyph":"."},{"X":19,"Y":2,"GlyphId":46,"StyleIndex":0,"Width":1,"Glyph":"."},{"X":20,"Y":2,"GlyphId":46,"StyleIndex":0,"Width":1,"Glyph":"."},{"X":21,"Y":2,"GlyphId":46,"StyleIndex":0,"Width":1,"Glyph":"."},{"X":22,"Y":2,"GlyphId":46,"StyleIndex":0,"Width":1,"Glyph":"."},{"X":23,"Y":2,"GlyphId":9553,"StyleIndex":0,"Width":1,"Glyph":"\u2551"},{"X":0,"Y":3,"GlyphId":9553,"StyleIndex":0,"Width":1,"Glyph":"\u2551"},{"X":1,"Y":3,"GlyphId":46,"StyleIndex":0,"Width":1,"Glyph":"."},{"X":2,"Y":3,"GlyphId":46,"StyleIndex":0,"Width":1,"Glyph":"."},{"X":3,"Y":3,"GlyphId":46,"StyleIndex":0,"Width":1,"Glyph":"."},{"X":4,"Y":3,"GlyphId":46,"StyleIndex":0,"Width":1,"Glyph":"."},{"X":5,"Y":3,"GlyphId":46,"StyleIndex":0,"Width":1,"Glyph":"."},{"X":6,"Y":3,"GlyphId":46,"StyleIndex":0,"Width":1,"Glyph":"."},{"X":7,"Y":3,"GlyphId":46,"StyleIndex":0,"Width":1,"Glyph":"."},{"X":8,"Y":3,"GlyphId":46,"StyleIndex":0,"Width":1,"Glyph":"."},{"X":9,"Y":3,"GlyphId":46,"StyleIndex":0,"Width":1,"Glyph":"."},{"X":10,"Y":3,"GlyphId":46,"StyleIndex":0,"Width":1,"Glyph":"."},{"X":11,"Y":3,"GlyphId":46,"StyleIndex":0,"Width":1,"Glyph":"."},{"X":12,"Y":3,"GlyphId":46,"StyleIndex":0,"Width":1,"Glyph":"."},{"X":13,"Y":3,"GlyphId":46,"StyleIndex":0,"Width":1,"Glyph":"."},{"X":14,"Y":3,"GlyphId":46,"StyleIndex":0,"Width":1,"Glyph":"."},{"X":15,"Y":3,"GlyphId":46,"StyleIndex":0,"Width":1,"Glyph":"."},{"X":16,"Y":3,"GlyphId":46,"StyleIndex":0,"Width":1,"Glyph":"."},{"X":17,"Y":3,"GlyphId":46,"StyleIndex":0,"Width":1,"Glyph":"."},{"X":18,"Y":3,"GlyphId":46,"StyleIndex":0,"Width":1,"Glyph":"."},{"X":19,"Y":3,"GlyphId":46,"StyleIndex":0,"Width":1,"Glyph":"."},{"X":20,"Y":3,"GlyphId":46,"StyleIndex":0,"Width":1,"Glyph":"."},{"X":21,"Y":3,"GlyphId":46,"StyleIndex":0,"Width":1,"Glyph":"."},{"X":22,"Y":3,"GlyphId":46,"StyleIndex":0,"Width":1,"Glyph":"."},{"X":23,"Y":3,"GlyphId":9553,"StyleIndex":0,"Width":1,"Glyph":"\u2551"},{"X":0,"Y":4,"GlyphId":9553,"StyleIndex":0,"Width":1,"Glyph":"\u2551"},{"X":1,"Y":4,"GlyphId":9556,"StyleIndex":0,"Width":1,"Glyph":"\u2554"},{"X":2,"Y":4,"GlyphId":9552,"StyleIndex":0,"Width":1,"Glyph":"\u2550"},{"X":3,"Y":4,"GlyphId":9552,"StyleIndex":0,"Width":1,"Glyph":"\u2550"},{"X":4,"Y":4,"GlyphId":9552,"StyleIndex":0,"Width":1,"Glyph":"\u2550"},{"X":5,"Y":4,"GlyphId":9552,"StyleIndex":0,"Width":1,"Glyph":"\u2550"},{"X":6,"Y":4,"GlyphId":9552,"StyleIndex":0,"Width":1,"Glyph":"\u2550"},{"X":7,"Y":4,"GlyphId":9552,"StyleIndex":0,"Width":1,"Glyph":"\u2550"},{"X":8,"Y":4,"GlyphId":9559,"StyleIndex":0,"Width":1,"Glyph":"\u2557"},{"X":9,"Y":4,"GlyphId":0,"StyleIndex":0,"Width":0,"Glyph":null},{"X":10,"Y":4,"GlyphId":9556,"StyleIndex":0,"Width":1,"Glyph":"\u2554"},{"X":11,"Y":4,"GlyphId":9552,"StyleIndex":0,"Width":1,"Glyph":"\u2550"},{"X":12,"Y":4,"GlyphId":9552,"StyleIndex":0,"Width":1,"Glyph":"\u2550"},{"X":13,"Y":4,"GlyphId":9559,"StyleIndex":0,"Width":1,"Glyph":"\u2557"},{"X":14,"Y":4,"GlyphId":0,"StyleIndex":0,"Width":0,"Glyph":null},{"X":15,"Y":4,"GlyphId":0,"StyleIndex":0,"Width":0,"Glyph":null},{"X":16,"Y":4,"GlyphId":0,"StyleIndex":0,"Width":0,"Glyph":null},{"X":17,"Y":4,"GlyphId":0,"StyleIndex":0,"Width":0,"Glyph":null},{"X":18,"Y":4,"GlyphId":0,"StyleIndex":0,"Width":0,"Glyph":null},{"X":19,"Y":4,"GlyphId":0,"StyleIndex":0,"Width":0,"Glyph":null},{"X":20,"Y":4,"GlyphId":0,"StyleIndex":0,"Width":0,"Glyph":null},{"X":21,"Y":4,"GlyphId":0,"StyleIndex":0,"Width":0,"Glyph":null},{"X":22,"Y":4,"GlyphId":0,"StyleIndex":0,"Width":0,"Glyph":null},{"X":23,"Y":4,"GlyphId":9553,"StyleIndex":0,"Width":1,"Glyph":"\u2551"},{"X":0,"Y":5,"GlyphId":9553,"StyleIndex":0,"Width":1,"Glyph":"\u2551"},{"X":1,"Y":5,"GlyphId":9553,"StyleIndex":0,"Width":1,"Glyph":"\u2551"},{"X":2,"Y":5,"GlyphId":67,"StyleIndex":0,"Width":1,"Glyph":"C"},{"X":3,"Y":5,"GlyphId":97,"StyleIndex":0,"Width":1,"Glyph":"a"},{"X":4,"Y":5,"GlyphId":110,"StyleIndex":0,"Width":1,"Glyph":"n"},{"X":5,"Y":5,"GlyphId":99,"StyleIndex":0,"Width":1,"Glyph":"c"},{"X":6,"Y":5,"GlyphId":101,"StyleIndex":0,"Width":1,"Glyph":"e"},{"X":7,"Y":5,"GlyphId":108,"StyleIndex":0,"Width":1,"Glyph":"l"},{"X":8,"Y":5,"GlyphId":9553,"StyleIndex":0,"Width":1,"Glyph":"\u2551"},{"X":9,"Y":5,"GlyphId":0,"StyleIndex":0,"Width":0,"Glyph":null},{"X":10,"Y":5,"GlyphId":9553,"StyleIndex":0,"Width":1,"Glyph":"\u2551"},{"X":11,"Y":5,"GlyphId":79,"StyleIndex":0,"Width":1,"Glyph":"O"},{"X":12,"Y":5,"GlyphId":75,"StyleIndex":0,"Width":1,"Glyph":"K"},{"X":13,"Y":5,"GlyphId":9553,"StyleIndex":0,"Width":1,"Glyph":"\u2551"},{"X":14,"Y":5,"GlyphId":0,"StyleIndex":0,"Width":0,"Glyph":null},{"X":15,"Y":5,"GlyphId":0,"StyleIndex":0,"Width":0,"Glyph":null},{"X":16,"Y":5,"GlyphId":0,"StyleIndex":0,"Width":0,"Glyph":null},{"X":17,"Y":5,"GlyphId":0,"StyleIndex":0,"Width":0,"Glyph":null},{"X":18,"Y":5,"GlyphId":0,"StyleIndex":0,"Width":0,"Glyph":null},{"X":19,"Y":5,"GlyphId":0,"StyleIndex":0,"Width":0,"Glyph":null},{"X":20,"Y":5,"GlyphId":0,"StyleIndex":0,"Width":0,"Glyph":null},{"X":21,"Y":5,"GlyphId":0,"StyleIndex":0,"Width":0,"Glyph":null},{"X":22,"Y":5,"GlyphId":0,"StyleIndex":0,"Width":0,"Glyph":null},{"X":23,"Y":5,"GlyphId":9553,"StyleIndex":0,"Width":1,"Glyph":"\u2551"},{"X":0,"Y":6,"GlyphId":9553,"StyleIndex":0,"Width":1,"Glyph":"\u2551"},{"X":1,"Y":6,"GlyphId":9562,"StyleIndex":0,"Width":1,"Glyph":"\u255A"},{"X":2,"Y":6,"GlyphId":9552,"StyleIndex":0,"Width":1,"Glyph":"\u2550"},{"X":3,"Y":6,"GlyphId":9552,"StyleIndex":0,"Width":1,"Glyph":"\u2550"},{"X":4,"Y":6,"GlyphId":9552,"StyleIndex":0,"Width":1,"Glyph":"\u2550"},{"X":5,"Y":6,"GlyphId":9552,"StyleIndex":0,"Width":1,"Glyph":"\u2550"},{"X":6,"Y":6,"GlyphId":9552,"StyleIndex":0,"Width":1,"Glyph":"\u2550"},{"X":7,"Y":6,"GlyphId":9552,"StyleIndex":0,"Width":1,"Glyph":"\u2550"},{"X":8,"Y":6,"GlyphId":9565,"StyleIndex":0,"Width":1,"Glyph":"\u255D"},{"X":9,"Y":6,"GlyphId":0,"StyleIndex":0,"Width":0,"Glyph":null},{"X":10,"Y":6,"GlyphId":9562,"StyleIndex":0,"Width":1,"Glyph":"\u255A"},{"X":11,"Y":6,"GlyphId":9552,"StyleIndex":0,"Width":1,"Glyph":"\u2550"},{"X":12,"Y":6,"GlyphId":9552,"StyleIndex":0,"Width":1,"Glyph":"\u2550"},{"X":13,"Y":6,"GlyphId":9565,"StyleIndex":0,"Width":1,"Glyph":"\u255D"},{"X":14,"Y":6,"GlyphId":0,"StyleIndex":0,"Width":0,"Glyph":null},{"X":15,"Y":6,"GlyphId":0,"StyleIndex":0,"Width":0,"Glyph":null},{"X":16,"Y":6,"GlyphId":0,"StyleIndex":0,"Width":0,"Glyph":null},{"X":17,"Y":6,"GlyphId":0,"StyleIndex":0,"Width":0,"Glyph":null},{"X":18,"Y":6,"GlyphId":0,"StyleIndex":0,"Width":0,"Glyph":null},{"X":19,"Y":6,"GlyphId":0,"StyleIndex":0,"Width":0,"Glyph":null},{"X":20,"Y":6,"GlyphId":0,"StyleIndex":0,"Width":0,"Glyph":null},{"X":21,"Y":6,"GlyphId":0,"StyleIndex":0,"Width":0,"Glyph":null},{"X":22,"Y":6,"GlyphId":0,"StyleIndex":0,"Width":0,"Glyph":null},{"X":23,"Y":6,"GlyphId":9553,"StyleIndex":0,"Width":1,"Glyph":"\u2551"},{"X":0,"Y":7,"GlyphId":9562,"StyleIndex":0,"Width":1,"Glyph":"\u255A"},{"X":1,"Y":7,"GlyphId":9552,"StyleIndex":0,"Width":1,"Glyph":"\u2550"},{"X":2,"Y":7,"GlyphId":9552,"StyleIndex":0,"Width":1,"Glyph":"\u2550"},{"X":3,"Y":7,"GlyphId":9552,"StyleIndex":0,"Width":1,"Glyph":"\u2550"},{"X":4,"Y":7,"GlyphId":9552,"StyleIndex":0,"Width":1,"Glyph":"\u2550"},{"X":5,"Y":7,"GlyphId":9552,"StyleIndex":0,"Width":1,"Glyph":"\u2550"},{"X":6,"Y":7,"GlyphId":9552,"StyleIndex":0,"Width":1,"Glyph":"\u2550"},{"X":7,"Y":7,"GlyphId":9552,"StyleIndex":0,"Width":1,"Glyph":"\u2550"},{"X":8,"Y":7,"GlyphId":9552,"StyleIndex":0,"Width":1,"Glyph":"\u2550"},{"X":9,"Y":7,"GlyphId":9552,"StyleIndex":0,"Width":1,"Glyph":"\u2550"},{"X":10,"Y":7,"GlyphId":9552,"StyleIndex":0,"Width":1,"Glyph":"\u2550"},{"X":11,"Y":7,"GlyphId":9552,"StyleIndex":0,"Width":1,"Glyph":"\u2550"},{"X":12,"Y":7,"GlyphId":9552,"StyleIndex":0,"Width":1,"Glyph":"\u2550"},{"X":13,"Y":7,"GlyphId":9552,"StyleIndex":0,"Width":1,"Glyph":"\u2550"},{"X":14,"Y":7,"GlyphId":9552,"StyleIndex":0,"Width":1,"Glyph":"\u2550"},{"X":15,"Y":7,"GlyphId":9552,"StyleIndex":0,"Width":1,"Glyph":"\u2550"},{"X":16,"Y":7,"GlyphId":9552,"StyleIndex":0,"Width":1,"Glyph":"\u2550"},{"X":17,"Y":7,"GlyphId":9552,"StyleIndex":0,"Width":1,"Glyph":"\u2550"},{"X":18,"Y":7,"GlyphId":9552,"StyleIndex":0,"Width":1,"Glyph":"\u2550"},{"X":19,"Y":7,"GlyphId":9552,"StyleIndex":0,"Width":1,"Glyph":"\u2550"},{"X":20,"Y":7,"GlyphId":9552,"StyleIndex":0,"Width":1,"Glyph":"\u2550"},{"X":21,"Y":7,"GlyphId":9552,"StyleIndex":0,"Width":1,"Glyph":"\u2550"},{"X":22,"Y":7,"GlyphId":9552,"StyleIndex":0,"Width":1,"Glyph":"\u2550"},{"X":23,"Y":7,"GlyphId":9565,"StyleIndex":0,"Width":1,"Glyph":"\u255D"}]}
  ]]></metadata>
  <rect width="100%" height="100%" fill="#ffffff" />
  <g font-family="ui-monospace, SFMono-Regular, Menlo, Monaco, Consolas, Liberation Mono, monospace" font-size="13" text-rendering="optimizeSpeed">
    <rect x="0" y="0" width="10" height="18" fill="#ffffff" />
    <text x="1" y="13" fill="#111111">╔</text>
    <rect x="10" y="0" width="10" height="18" fill="#ffffff" />
    <text x="11" y="13" fill="#111111">═</text>
    <rect x="20" y="0" width="10" height="18" fill="#ffffff" />
    <text x="21" y="13" fill="#111111">═</text>
    <rect x="30" y="0" width="10" height="18" fill="#ffffff" />
    <text x="31" y="13" fill="#111111">═</text>
    <rect x="40" y="0" width="10" height="18" fill="#ffffff" />
    <text x="41" y="13" fill="#111111">═</text>
    <rect x="50" y="0" width="10" height="18" fill="#ffffff" />
    <text x="51" y="13" fill="#111111">═</text>
    <rect x="60" y="0" width="10" height="18" fill="#ffffff" />
    <text x="61" y="13" fill="#111111">═</text>
    <rect x="70" y="0" width="10" height="18" fill="#ffffff" />
    <text x="71" y="13" fill="#111111">═</text>
    <rect x="80" y="0" width="10" height="18" fill="#ffffff" />
    <text x="81" y="13" fill="#111111">═</text>
    <rect x="90" y="0" width="10" height="18" fill="#ffffff" />
    <text x="91" y="13" fill="#111111">═</text>
    <rect x="100" y="0" width="10" height="18" fill="#ffffff" />
    <text x="101" y="13" fill="#111111">═</text>
    <rect x="110" y="0" width="10" height="18" fill="#ffffff" />
    <text x="111" y="13" fill="#111111">═</text>
    <rect x="120" y="0" width="10" height="18" fill="#ffffff" />
    <text x="121" y="13" fill="#111111">═</text>
    <rect x="130" y="0" width="10" height="18" fill="#ffffff" />
    <text x="131" y="13" fill="#111111">═</text>
    <rect x="140" y="0" width="10" height="18" fill="#ffffff" />
    <text x="141" y="13" fill="#111111">═</text>
    <rect x="150" y="0" width="10" height="18" fill="#ffffff" />
    <text x="151" y="13" fill="#111111">═</text>
    <rect x="160" y="0" width="10" height="18" fill="#ffffff" />
    <text x="161" y="13" fill="#111111">═</text>
    <rect x="170" y="0" width="10" height="18" fill="#ffffff" />
    <text x="171" y="13" fill="#111111">═</text>
    <rect x="180" y="0" width="10" height="18" fill="#ffffff" />
    <text x="181" y="13" fill="#111111">═</text>
    <rect x="190" y="0" width="10" height="18" fill="#ffffff" />
    <text x="191" y="13" fill="#111111">═</text>
    <rect x="200" y="0" width="10" height="18" fill="#ffffff" />
    <text x="201" y="13" fill="#111111">═</text>
    <rect x="210" y="0" width="10" height="18" fill="#ffffff" />
    <text x="211" y="13" fill="#111111">═</text>
    <rect x="220" y="0" width="10" height="18" fill="#ffffff" />
    <text x="221" y="13" fill="#111111">═</text>
    <rect x="230" y="0" width="10" height="18" fill="#ffffff" />
    <text x="231" y="13" fill="#111111">╗</text>
    <rect x="0" y="18" width="10" height="18" fill="#ffffff" />
    <text x="1" y="31" fill="#111111">║</text>
    <rect x="10" y="18" width="10" height="18" fill="#ffffff" />
    <text x="11" y="31" fill="#111111">.</text>
    <rect x="20" y="18" width="10" height="18" fill="#ffffff" />
    <text x="21" y="31" fill="#111111">.</text>
    <rect x="30" y="18" width="10" height="18" fill="#ffffff" />
    <text x="31" y="31" fill="#111111">.</text>
    <rect x="40" y="18" width="10" height="18" fill="#ffffff" />
    <text x="41" y="31" fill="#111111">.</text>
    <rect x="50" y="18" width="10" height="18" fill="#ffffff" />
    <text x="51" y="31" fill="#111111">.</text>
    <rect x="60" y="18" width="10" height="18" fill="#ffffff" />
    <text x="61" y="31" fill="#111111">.</text>
    <rect x="70" y="18" width="10" height="18" fill="#ffffff" />
    <text x="71" y="31" fill="#111111">.</text>
    <rect x="80" y="18" width="10" height="18" fill="#ffffff" />
    <text x="81" y="31" fill="#111111">.</text>
    <rect x="90" y="18" width="10" height="18" fill="#ffffff" />
    <text x="91" y="31" fill="#111111">.</text>
    <rect x="100" y="18" width="10" height="18" fill="#ffffff" />
    <text x="101" y="31" fill="#111111">.</text>
    <rect x="110" y="18" width="10" height="18" fill="#ffffff" />
    <text x="111" y="31" fill="#111111">.</text>
    <rect x="120" y="18" width="10" height="18" fill="#ffffff" />
    <text x="121" y="31" fill="#111111">.</text>
    <rect x="130" y="18" width="10" height="18" fill="#ffffff" />
    <text x="131" y="31" fill="#111111">.</text>
    <rect x="140" y="18" width="10" height="18" fill="#ffffff" />
    <text x="141" y="31" fill="#111111">.</text>
    <rect x="150" y="18" width="10" height="18" fill="#ffffff" />
    <text x="151" y="31" fill="#111111">.</text>
    <rect x="160" y="18" width="10" height="18" fill="#ffffff" />
    <text x="161" y="31" fill="#111111">.</text>
    <rect x="170" y="18" width="10" height="18" fill="#ffffff" />
    <text x="171" y="31" fill="#111111">.</text>
    <rect x="180" y="18" width="10" height="18" fill="#ffffff" />
    <text x="181" y="31" fill="#111111">.</text>
    <rect x="190" y="18" width="10" height="18" fill="#ffffff" />
    <text x="191" y="31" fill="#111111">.</text>
    <rect x="200" y="18" width="10" height="18" fill="#ffffff" />
    <text x="201" y="31" fill="#111111">.</text>
    <rect x="210" y="18" width="10" height="18" fill="#ffffff" />
    <text x="211" y="31" fill="#111111">.</text>
    <rect x="220" y="18" width="10" height="18" fill="#ffffff" />
    <text x="221" y="31" fill="#111111">.</text>
    <rect x="230" y="18" width="10" height="18" fill="#ffffff" />
    <text x="231" y="31" fill="#111111">║</text>
    <rect x="0" y="36" width="10" height="18" fill="#ffffff" />
    <text x="1" y="49" fill="#111111">║</text>
    <rect x="10" y="36" width="10" height="18" fill="#ffffff" />
    <text x="11" y="49" fill="#111111">.</text>
    <rect x="20" y="36" width="10" height="18" fill="#ffffff" />
    <text x="21" y="49" fill="#111111">.</text>
    <rect x="30" y="36" width="10" height="18" fill="#ffffff" />
    <text x="31" y="49" fill="#111111">.</text>
    <rect x="40" y="36" width="10" height="18" fill="#ffffff" />
    <text x="41" y="49" fill="#111111">.</text>
    <rect x="50" y="36" width="10" height="18" fill="#ffffff" />
    <text x="51" y="49" fill="#111111">.</text>
    <rect x="60" y="36" width="10" height="18" fill="#ffffff" />
    <text x="61" y="49" fill="#111111">.</text>
    <rect x="70" y="36" width="10" height="18" fill="#ffffff" />
    <text x="71" y="49" fill="#111111">.</text>
    <rect x="80" y="36" width="10" height="18" fill="#ffffff" />
    <text x="81" y="49" fill="#111111">.</text>
    <rect x="90" y="36" width="10" height="18" fill="#ffffff" />
    <text x="91" y="49" fill="#111111">.</text>
    <rect x="100" y="36" width="10" height="18" fill="#ffffff" />
    <text x="101" y="49" fill="#111111">.</text>
    <rect x="110" y="36" width="10" height="18" fill="#ffffff" />
    <text x="111" y="49" fill="#111111">.</text>
    <rect x="120" y="36" width="10" height="18" fill="#ffffff" />
    <text x="121" y="49" fill="#111111">.</text>
    <rect x="130" y="36" width="10" height="18" fill="#ffffff" />
    <text x="131" y="49" fill="#111111">.</text>
    <rect x="140" y="36" width="10" height="18" fill="#ffffff" />
    <text x="141" y="49" fill="#111111">.</text>
    <rect x="150" y="36" width="10" height="18" fill="#ffffff" />
    <text x="151" y="49" fill="#111111">.</text>
    <rect x="160" y="36" width="10" height="18" fill="#ffffff" />
    <text x="161" y="49" fill="#111111">.</text>
    <rect x="170" y="36" width="10" height="18" fill="#ffffff" />
    <text x="171" y="49" fill="#111111">.</text>
    <rect x="180" y="36" width="10" height="18" fill="#ffffff" />
    <text x="181" y="49" fill="#111111">.</text>
    <rect x="190" y="36" width="10" height="18" fill="#ffffff" />
    <text x="191" y="49" fill="#111111">.</text>
    <rect x="200" y="36" width="10" height="18" fill="#ffffff" />
    <text x="201" y="49" fill="#111111">.</text>
    <rect x="210" y="36" width="10" height="18" fill="#ffffff" />
    <text x="211" y="49" fill="#111111">.</text>
    <rect x="220" y="36" width="10" height="18" fill="#ffffff" />
    <text x="221" y="49" fill="#111111">.</text>
    <rect x="230" y="36" width="10" height="18" fill="#ffffff" />
    <text x="231" y="49" fill="#111111">║</text>
    <rect x="0" y="54" width="10" height="18" fill="#ffffff" />
    <text x="1" y="67" fill="#111111">║</text>
    <rect x="10" y="54" width="10" height="18" fill="#ffffff" />
    <text x="11" y="67" fill="#111111">.</text>
    <rect x="20" y="54" width="10" height="18" fill="#ffffff" />
    <text x="21" y="67" fill="#111111">.</text>
    <rect x="30" y="54" width="10" height="18" fill="#ffffff" />
    <text x="31" y="67" fill="#111111">.</text>
    <rect x="40" y="54" width="10" height="18" fill="#ffffff" />
    <text x="41" y="67" fill="#111111">.</text>
    <rect x="50" y="54" width="10" height="18" fill="#ffffff" />
    <text x="51" y="67" fill="#111111">.</text>
    <rect x="60" y="54" width="10" height="18" fill="#ffffff" />
    <text x="61" y="67" fill="#111111">.</text>
    <rect x="70" y="54" width="10" height="18" fill="#ffffff" />
    <text x="71" y="67" fill="#111111">.</text>
    <rect x="80" y="54" width="10" height="18" fill="#ffffff" />
    <text x="81" y="67" fill="#111111">.</text>
    <rect x="90" y="54" width="10" height="18" fill="#ffffff" />
    <text x="91" y="67" fill="#111111">.</text>
    <rect x="100" y="54" width="10" height="18" fill="#ffffff" />
    <text x="101" y="67" fill="#111111">.</text>
    <rect x="110" y="54" width="10" height="18" fill="#ffffff" />
    <text x="111" y="67" fill="#111111">.</text>
    <rect x="120" y="54" width="10" height="18" fill="#ffffff" />
    <text x="121" y="67" fill="#111111">.</text>
    <rect x="130" y="54" width="10" height="18" fill="#ffffff" />
    <text x="131" y="67" fill="#111111">.</text>
    <rect x="140" y="54" width="10" height="18" fill="#ffffff" />
    <text x="141" y="67" fill="#111111">.</text>
    <rect x="150" y="54" width="10" height="18" fill="#ffffff" />
    <text x="151" y="67" fill="#111111">.</text>
    <rect x="160" y="54" width="10" height="18" fill="#ffffff" />
    <text x="161" y="67" fill="#111111">.</text>
    <rect x="170" y="54" width="10" height="18" fill="#ffffff" />
    <text x="171" y="67" fill="#111111">.</text>
    <rect x="180" y="54" width="10" height="18" fill="#ffffff" />
    <text x="181" y="67" fill="#111111">.</text>
    <rect x="190" y="54" width="10" height="18" fill="#ffffff" />
    <text x="191" y="67" fill="#111111">.</text>
    <rect x="200" y="54" width="10" height="18" fill="#ffffff" />
    <text x="201" y="67" fill="#111111">.</text>
    <rect x="210" y="54" width="10" height="18" fill="#ffffff" />
    <text x="211" y="67" fill="#111111">.</text>
    <rect x="220" y="54" width="10" height="18" fill="#ffffff" />
    <text x="221" y="67" fill="#111111">.</text>
    <rect x="230" y="54" width="10" height="18" fill="#ffffff" />
    <text x="231" y="67" fill="#111111">║</text>
    <rect x="0" y="72" width="10" height="18" fill="#ffffff" />
    <text x="1" y="85" fill="#111111">║</text>
    <rect x="10" y="72" width="10" height="18" fill="#ffffff" />
    <text x="11" y="85" fill="#111111">╔</text>
    <rect x="20" y="72" width="10" height="18" fill="#ffffff" />
    <text x="21" y="85" fill="#111111">═</text>
    <rect x="30" y="72" width="10" height="18" fill="#ffffff" />
    <text x="31" y="85" fill="#111111">═</text>
    <rect x="40" y="72" width="10" height="18" fill="#ffffff" />
    <text x="41" y="85" fill="#111111">═</text>
    <rect x="50" y="72" width="10" height="18" fill="#ffffff" />
    <text x="51" y="85" fill="#111111">═</text>
    <rect x="60" y="72" width="10" height="18" fill="#ffffff" />
    <text x="61" y="85" fill="#111111">═</text>
    <rect x="70" y="72" width="10" height="18" fill="#ffffff" />
    <text x="71" y="85" fill="#111111">═</text>
    <rect x="80" y="72" width="10" height="18" fill="#ffffff" />
    <text x="81" y="85" fill="#111111">╗</text>
    <rect x="100" y="72" width="10" height="18" fill="#ffffff" />
    <text x="101" y="85" fill="#111111">╔</text>
    <rect x="110" y="72" width="10" height="18" fill="#ffffff" />
    <text x="111" y="85" fill="#111111">═</text>
    <rect x="120" y="72" width="10" height="18" fill="#ffffff" />
    <text x="121" y="85" fill="#111111">═</text>
    <rect x="130" y="72" width="10" height="18" fill="#ffffff" />
    <text x="131" y="85" fill="#111111">╗</text>
    <rect x="230" y="72" width="10" height="18" fill="#ffffff" />
    <text x="231" y="85" fill="#111111">║</text>
    <rect x="0" y="90" width="10" height="18" fill="#ffffff" />
    <text x="1" y="103" fill="#111111">║</text>
    <rect x="10" y="90" width="10" height="18" fill="#ffffff" />
    <text x="11" y="103" fill="#111111">║</text>
    <rect x="20" y="90" width="10" height="18" fill="#ffffff" />
    <text x="21" y="103" fill="#111111">C</text>
    <rect x="30" y="90" width="10" height="18" fill="#ffffff" />
    <text x="31" y="103" fill="#111111">a</text>
    <rect x="40" y="90" width="10" height="18" fill="#ffffff" />
    <text x="41" y="103" fill="#111111">n</text>
    <rect x="50" y="90" width="10" height="18" fill="#ffffff" />
    <text x="51" y="103" fill="#111111">c</text>
    <rect x="60" y="90" width="10" height="18" fill="#ffffff" />
    <text x="61" y="103" fill="#111111">e</text>
    <rect x="70" y="90" width="10" height="18" fill="#ffffff" />
    <text x="71" y="103" fill="#111111">l</text>
    <rect x="80" y="90" width="10" height="18" fill="#ffffff" />
    <text x="81" y="103" fill="#111111">║</text>
    <rect x="100" y="90" width="10" height="18" fill="#ffffff" />
    <text x="101" y="103" fill="#111111">║</text>
    <rect x="110" y="90" width="10" height="18" fill="#ffffff" />
    <text x="111" y="103" fill="#111111">O</text>
    <rect x="120" y="90" width="10" height="18" fill="#ffffff" />
    <text x="121" y="103" fill="#111111">K</text>
    <rect x="130" y="90" width="10" height="18" fill="#ffffff" />
    <text x="131" y="103" fill="#111111">║</text>
    <rect x="230" y="90" width="10" height="18" fill="#ffffff" />
    <text x="231" y="103" fill="#111111">║</text>
    <rect x="0" y="108" width="10" height="18" fill="#ffffff" />
    <text x="1" y="121" fill="#111111">║</text>
    <rect x="10" y="108" width="10" height="18" fill="#ffffff" />
    <text x="11" y="121" fill="#111111">╚</text>
    <rect x="20" y="108" width="10" height="18" fill="#ffffff" />
    <text x="21" y="121" fill="#111111">═</text>
    <rect x="30" y="108" width="10" height="18" fill="#ffffff" />
    <text x="31" y="121" fill="#111111">═</text>
    <rect x="40" y="108" width="10" height="18" fill="#ffffff" />
    <text x="41" y="121" fill="#111111">═</text>
    <rect x="50" y="108" width="10" height="18" fill="#ffffff" />
    <text x="51" y="121" fill="#111111">═</text>
    <rect x="60" y="108" width="10" height="18" fill="#ffffff" />
    <text x="61" y="121" fill="#111111">═</text>
    <rect x="70" y="108" width="10" height="18" fill="#ffffff" />
    <text x="71" y="121" fill="#111111">═</text>
    <rect x="80" y="108" width="10" height="18" fill="#ffffff" />
    <text x="81" y="121" fill="#111111">╝</text>
    <rect x="100" y="108" width="10" height="18" fill="#ffffff" />
    <text x="101" y="121" fill="#111111">╚</text>
    <rect x="110" y="108" width="10" height="18" fill="#ffffff" />
    <text x="111" y="121" fill="#111111">═</text>
    <rect x="120" y="108" width="10" height="18" fill="#ffffff" />
    <text x="121" y="121" fill="#111111">═</text>
    <rect x="130" y="108" width="10" height="18" fill="#ffffff" />
    <text x="131" y="121" fill="#111111">╝</text>
    <rect x="230" y="108" width="10" height="18" fill="#ffffff" />
    <text x="231" y="121" fill="#111111">║</text>
    <rect x="0" y="126" width="10" height="18" fill="#ffffff" />
    <text x="1" y="139" fill="#111111">╚</text>
    <rect x="10" y="126" width="10" height="18" fill="#ffffff" />
    <text x="11" y="139" fill="#111111">═</text>
    <rect x="20" y="126" width="10" height="18" fill="#ffffff" />
    <text x="21" y="139" fill="#111111">═</text>
    <rect x="30" y="126" width="10" height="18" fill="#ffffff" />
    <text x="31" y="139" fill="#111111">═</text>
    <rect x="40" y="126" width="10" height="18" fill="#ffffff" />
    <text x="41" y="139" fill="#111111">═</text>
    <rect x="50" y="126" width="10" height="18" fill="#ffffff" />
    <text x="51" y="139" fill="#111111">═</text>
    <rect x="60" y="126" width="10" height="18" fill="#ffffff" />
    <text x="61" y="139" fill="#111111">═</text>
    <rect x="70" y="126" width="10" height="18" fill="#ffffff" />
    <text x="71" y="139" fill="#111111">═</text>
    <rect x="80" y="126" width="10" height="18" fill="#ffffff" />
    <text x="81" y="139" fill="#111111">═</text>
    <rect x="90" y="126" width="10" height="18" fill="#ffffff" />
    <text x="91" y="139" fill="#111111">═</text>
    <rect x="100" y="126" width="10" height="18" fill="#ffffff" />
    <text x="101" y="139" fill="#111111">═</text>
    <rect x="110" y="126" width="10" height="18" fill="#ffffff" />
    <text x="111" y="139" fill="#111111">═</text>
    <rect x="120" y="126" width="10" height="18" fill="#ffffff" />
    <text x="121" y="139" fill="#111111">═</text>
    <rect x="130" y="126" width="10" height="18" fill="#ffffff" />
    <text x="131" y="139" fill="#111111">═</text>
    <rect x="140" y="126" width="10" height="18" fill="#ffffff" />
    <text x="141" y="139" fill="#111111">═</text>
    <rect x="150" y="126" width="10" height="18" fill="#ffffff" />
    <text x="151" y="139" fill="#111111">═</text>
    <rect x="160" y="126" width="10" height="18" fill="#ffffff" />
    <text x="161" y="139" fill="#111111">═</text>
    <rect x="170" y="126" width="10" height="18" fill="#ffffff" />
    <text x="171" y="139" fill="#111111">═</text>
    <rect x="180" y="126" width="10" height="18" fill="#ffffff" />
    <text x="181" y="139" fill="#111111">═</text>
    <rect x="190" y="126" width="10" height="18" fill="#ffffff" />
    <text x="191" y="139" fill="#111111">═</text>
    <rect x="200" y="126" width="10" height="18" fill="#ffffff" />
    <text x="201" y="139" fill="#111111">═</text>
    <rect x="210" y="126" width="10" height="18" fill="#ffffff" />
    <text x="211" y="139" fill="#111111">═</text>
    <rect x="220" y="126" width="10" height="18" fill="#ffffff" />
    <text x="221" y="139" fill="#111111">═</text>
    <rect x="230" y="126" width="10" height="18" fill="#ffffff" />
    <text x="231" y="139" fill="#111111">╝</text>
  </g>
</svg>
