<svg xmlns="http://www.w3.org/2000/svg" width="50" height="36" viewBox="0 0 50 36">
  <metadata id="thoth-snapshot" type="application/json"><![CDATA[
{"Width":5,"Height":2,"Cells":[{"X":0,"Y":0,"GlyphId":97,"StyleIndex":0,"Width":1,"Glyph":"a"},{"X":1,"Y":0,"GlyphId":98,"StyleIndex":1,"Width":1,"Glyph":"b"},{"X":2,"Y":0,"GlyphId":99,"StyleIndex":1,"Width":1,"Glyph":"c"},{"X":3,"Y":0,"GlyphId":100,"StyleIndex":1,"Width":1,"Glyph":"d"},{"X":4,"Y":0,"GlyphId":101,"StyleIndex":1,"Width":1,"Glyph":"e"},{"X":0,"Y":1,"GlyphId":102,"StyleIndex":0,"Width":1,"Glyph":"f"},{"X":1,"Y":1,"GlyphId":103,"StyleIndex":1,"Width":1,"Glyph":"g"},{"X":2,"Y":1,"GlyphId":104,"StyleIndex":1,"Width":1,"Glyph":"h"},{"X":3,"Y":1,"GlyphId":105,"StyleIndex":1,"Width":1,"Glyph":"i"},{"X":4,"Y":1,"GlyphId":106,"StyleIndex":1,"Width":1,"Glyph":"j"}]}
  ]]></metadata>
  <rect width="100%" height="100%" fill="#ffffff" />
  <g font-family="ui-monospace, SFMono-Regular, Menlo, Monaco, Consolas, Liberation Mono, monospace" font-size="13" text-rendering="optimizeSpeed">
    <rect x="0" y="0" width="10" height="18" fill="#ffffff" />
    <text x="1" y="13" fill="#111111">a</text>
    <rect x="10" y="0" width="10" height="18" fill="hsl(47, 62%, 82%)" />
    <text x="11" y="13" fill="#111111">b</text>
    <rect x="20" y="0" width="10" height="18" fill="hsl(47, 62%, 82%)" />
    <text x="21" y="13" fill="#111111">c</text>
    <rect x="30" y="0" width="10" height="18" fill="hsl(47, 62%, 82%)" />
    <text x="31" y="13" fill="#111111">d</text>
    <rect x="40" y="0" width="10" height="18" fill="hsl(47, 62%, 82%)" />
    <text x="41" y="13" fill="#111111">e</text>
    <rect x="0" y="18" width="10" height="18" fill="#ffffff" />
    <text x="1" y="31" fill="#111111">f</text>
    <rect x="10" y="18" width="10" height="18" fill="hsl(47, 62%, 82%)" />
    <text x="11" y="31" fill="#111111">g</text>
    <rect x="20" y="18" width="10" height="18" fill="hsl(47, 62%, 82%)" />
    <text x="21" y="31" fill="#111111">h</text>
    <rect x="30" y="18" width="10" height="18" fill="hsl(47, 62%, 82%)" />
    <text x="31" y="31" fill="#111111">i</text>
    <rect x="40" y="18" width="10" height="18" fill="hsl(47, 62%, 82%)" />
    <text x="41" y="31" fill="#111111">j</text>
  </g>
</svg>
