<svg xmlns="http://www.w3.org/2000/svg" width="300" height="144" viewBox="0 0 300 144">
  <metadata id="thoth-snapshot" type="application/json"><![CDATA[
{"Width":30,"Height":8,"Cells":[{"X":0,"Y":0,"GlyphId":32,"StyleIndex":0,"Width":1,"Glyph":" "},{"X":1,"Y":0,"GlyphId":32,"StyleIndex":0,"Width":1,"Glyph":" "},{"X":2,"Y":0,"GlyphId":32,"StyleIndex":0,"Width":1,"Glyph":" "},{"X":3,"Y":0,"GlyphId":32,"StyleIndex":0,"Width":1,"Glyph":" "},{"X":4,"Y":0,"GlyphId":32,"StyleIndex":0,"Width":1,"Glyph":" "},{"X":5,"Y":0,"GlyphId":32,"StyleIndex":0,"Width":1,"Glyph":" "},{"X":6,"Y":0,"GlyphId":32,"StyleIndex":0,"Width":1,"Glyph":" "},{"X":7,"Y":0,"GlyphId":32,"StyleIndex":0,"Width":1,"Glyph":" "},{"X":8,"Y":0,"GlyphId":32,"StyleIndex":0,"Width":1,"Glyph":" "},{"X":9,"Y":0,"GlyphId":32,"StyleIndex":0,"Width":1,"Glyph":" "},{"X":10,"Y":0,"GlyphId":32,"StyleIndex":0,"Width":1,"Glyph":" "},{"X":11,"Y":0,"GlyphId":32,"StyleIndex":0,"Width":1,"Glyph":" "},{"X":12,"Y":0,"GlyphId":32,"StyleIndex":0,"Width":1,"Glyph":" "},{"X":13,"Y":0,"GlyphId":32,"StyleIndex":0,"Width":1,"Glyph":" "},{"X":14,"Y":0,"GlyphId":32,"StyleIndex":0,"Width":1,"Glyph":" "},{"X":15,"Y":0,"GlyphId":32,"StyleIndex":0,"Width":1,"Glyph":" "},{"X":16,"Y":0,"GlyphId":32,"StyleIndex":0,"Width":1,"Glyph":" "},{"X":17,"Y":0,"GlyphId":32,"StyleIndex":0,"Width":1,"Glyph":" "},{"X":18,"Y":0,"GlyphId":32,"StyleIndex":0,"Width":1,"Glyph":" "},{"X":19,"Y":0,"GlyphId":32,"StyleIndex":0,"Width":1,"Glyph":" "},{"X":20,"Y":0,"GlyphId":32,"StyleIndex":0,"Width":1,"Glyph":" "},{"X":21,"Y":0,"GlyphId":32,"StyleIndex":0,"Width":1,"Glyph":" "},{"X":22,"Y":0,"GlyphId":32,"StyleIndex":0,"Width":1,"Glyph":" "},{"X":23,"Y":0,"GlyphId":32,"StyleIndex":0,"Width":1,"Glyph":" "},{"X":24,"Y":0,"GlyphId":32,"StyleIndex":0,"Width":1,"Glyph":" "},{"X":25,"Y":0,"GlyphId":32,"StyleIndex":0,"Width":1,"Glyph":" "},{"X":26,"Y":0,"GlyphId":32,"StyleIndex":0,"Width":1,"Glyph":" "},{"X":27,"Y":0,"GlyphId":32,"StyleIndex":0,"Width":1,"Glyph":" "},{"X":28,"Y":0,"GlyphId":32,"StyleIndex":0,"Width":1,"Glyph":" "},{"X":29,"Y":0,"GlyphId":32,"StyleIndex":0,"Width":1,"Glyph":" "},{"X":0,"Y":1,"GlyphId":32,"StyleIndex":0,"Width":1,"Glyph":" "},{"X":1,"Y":1,"GlyphId":32,"StyleIndex":0,"Width":1,"Glyph":" "},{"X":2,"Y":1,"GlyphId":32,"StyleIndex":0,"Width":1,"Glyph":" "},{"X":3,"Y":1,"GlyphId":32,"StyleIndex":0,"Width":1,"Glyph":" "},{"X":4,"Y":1,"GlyphId":32,"StyleIndex":0,"Width":1,"Glyph":" "},{"X":5,"Y":1,"GlyphId":32,"StyleIndex":0,"Width":1,"Glyph":" "},{"X":6,"Y":1,"GlyphId":32,"StyleIndex":0,"Width":1,"Glyph":" "},{"X":7,"Y":1,"GlyphId":32,"StyleIndex":0,"Width":1,"Glyph":" "},{"X":8,"Y":1,"GlyphId":32,"StyleIndex":0,"Width":1,"Glyph":" "},{"X":9,"Y":1,"GlyphId":32,"StyleIndex":0,"Width":1,"Glyph":" "},{"X":10,"Y":1,"GlyphId":32,"StyleIndex":0,"Width":1,"Glyph":" "},{"X":11,"Y":1,"GlyphId":32,"StyleIndex":0,"Width":1,"Glyph":" "},{"X":12,"Y":1,"GlyphId":32,"StyleIndex":0,"Width":1,"Glyph":" "},{"X":13,"Y":1,"GlyphId":32,"StyleIndex":0,"Width":1,"Glyph":" "},{"X":14,"Y":1,"GlyphId":32,"StyleIndex":0,"Width":1,"Glyph":" "},{"X":15,"Y":1,"GlyphId":32,"StyleIndex":0,"Width":1,"Glyph":" "},{"X":16,"Y":1,"GlyphId":32,"StyleIndex":0,"Width":1,"Glyph":" "},{"X":17,"Y":1,"GlyphId":32,"StyleIndex":0,"Width":1,"Glyph":" "},{"X":18,"Y":1,"GlyphId":32,"StyleIndex":0,"Width":1,"Glyph":" "},{"X":19,"Y":1,"GlyphId":32,"StyleIndex":0,"Width":1,"Glyph":" "},{"X":20,"Y":1,"GlyphId":32,"StyleIndex":0,"Width":1,"Glyph":" "},{"X":21,"Y":1,"GlyphId":32,"StyleIndex":0,"Width":1,"Glyph":" "},{"X":22,"Y":1,"GlyphId":32,"StyleIndex":0,"Width":1,"Glyph":" "},{"X":23,"Y":1,"GlyphId":32,"StyleIndex":0,"Width":1,"Glyph":" "},{"X":24,"Y":1,"GlyphId":32,"StyleIndex":0,"Width":1,"Glyph":" "},{"X":25,"Y":1,"GlyphId":32,"StyleIndex":0,"Width":1,"Glyph":" "},{"X":26,"Y":1,"GlyphId":32,"StyleIndex":0,"Width":1,"Glyph":" "},{"X":27,"Y":1,"GlyphId":32,"StyleIndex":0,"Width":1,"Glyph":" "},{"X":28,"Y":1,"GlyphId":32,"StyleIndex":0,"Width":1,"Glyph":" "},{"X":29,"Y":1,"GlyphId":32,"StyleIndex":0,"Width":1,"Glyph":" "},{"X":0,"Y":2,"GlyphId":32,"StyleIndex":0,"Width":1,"Glyph":" "},{"X":1,"Y":2,"GlyphId":32,"StyleIndex":0,"Width":1,"Glyph":" "},{"X":2,"Y":2,"GlyphId":32,"StyleIndex":0,"Width":1,"Glyph":" "},{"X":3,"Y":2,"GlyphId":32,"StyleIndex":0,"Width":1,"Glyph":" "},{"X":4,"Y":2,"GlyphId":32,"StyleIndex":0,"Width":1,"Glyph":" "},{"X":5,"Y":2,"GlyphId":32,"StyleIndex":0,"Width":1,"Glyph":" "},{"X":6,"Y":2,"GlyphId":32,"StyleIndex":0,"Width":1,"Glyph":" "},{"X":7,"Y":2,"GlyphId":32,"StyleIndex":0,"Width":1,"Glyph":" "},{"X":8,"Y":2,"GlyphId":32,"StyleIndex":0,"Width":1,"Glyph":" "},{"X":9,"Y":2,"GlyphId":32,"StyleIndex":0,"Width":1,"Glyph":" "},{"X":10,"Y":2,"GlyphId":32,"StyleIndex":0,"Width":1,"Glyph":" "},{"X":11,"Y":2,"GlyphId":32,"StyleIndex":0,"Width":1,"Glyph":" "},{"X":12,"Y":2,"GlyphId":32,"StyleIndex":0,"Width":1,"Glyph":" "},{"X":13,"Y":2,"GlyphId":32,"StyleIndex":0,"Width":1,"Glyph":" "},{"X":14,"Y":2,"GlyphId":32,"StyleIndex":0,"Width":1,"Glyph":" "},{"X":15,"Y":2,"GlyphId":32,"StyleIndex":0,"Width":1,"Glyph":" "},{"X":16,"Y":2,"GlyphId":32,"StyleIndex":0,"Width":1,"Glyph":" "},{"X":17,"Y":2,"GlyphId":32,"StyleIndex":0,"Width":1,"Glyph":" "},{"X":18,"Y":2,"GlyphId":32,"StyleIndex":0,"Width":1,"Glyph":" "},{"X":19,"Y":2,"GlyphId":32,"StyleIndex":0,"Width":1,"Glyph":" "},{"X":20,"Y":2,"GlyphId":32,"StyleIndex":0,"Width":1,"Glyph":" "},{"X":21,"Y":2,"GlyphId":32,"StyleIndex":0,"Width":1,"Glyph":" "},{"X":22,"Y":2,"GlyphId":32,"StyleIndex":0,"Width":1,"Glyph":" "},{"X":23,"Y":2,"GlyphId":32,"StyleIndex":0,"Width":1,"Glyph":" "},{"X":24,"Y":2,"GlyphId":32,"StyleIndex":0,"Width":1,"Glyph":" "},{"X":25,"Y":2,"GlyphId":32,"StyleIndex":0,"Width":1,"Glyph":" "},{"X":26,"Y":2,"GlyphId":32,"StyleIndex":0,"Width":1,"Glyph":" "},{"X":27,"Y":2,"GlyphId":32,"StyleIndex":0,"Width":1,"Glyph":" "},{"X":28,"Y":2,"GlyphId":32,"StyleIndex":0,"Width":1,"Glyph":" "},{"X":29,"Y":2,"GlyphId":32,"StyleIndex":0,"Width":1,"Glyph":" "},{"X":0,"Y":3,"GlyphId":32,"StyleIndex":0,"Width":1,"Glyph":" "},{"X":1,"Y":3,"GlyphId":32,"StyleIndex":0,"Width":1,"Glyph":" "},{"X":2,"Y":3,"GlyphId":32,"StyleIndex":0,"Width":1,"Glyph":" "},{"X":3,"Y":3,"GlyphId":32,"StyleIndex":0,"Width":1,"Glyph":" "},{"X":4,"Y":3,"GlyphId":32,"StyleIndex":0,"Width":1,"Glyph":" "},{"X":5,"Y":3,"GlyphId":32,"StyleIndex":0,"Width":1,"Glyph":" "},{"X":6,"Y":3,"GlyphId":32,"StyleIndex":0,"Width":1,"Glyph":" "},{"X":7,"Y":3,"GlyphId":32,"StyleIndex":0,"Width":1,"Glyph":" "},{"X":8,"Y":3,"GlyphId":32,"StyleIndex":0,"Width":1,"Glyph":" "},{"X":9,"Y":3,"GlyphId":32,"StyleIndex":0,"Width":1,"Glyph":" "},{"X":10,"Y":3,"GlyphId":32,"StyleIndex":0,"Width":1,"Glyph":" "},{"X":11,"Y":3,"GlyphId":32,"StyleIndex":0,"Width":1,"Glyph":" "},{"X":12,"Y":3,"GlyphId":32,"StyleIndex":0,"Width":1,"Glyph":" "},{"X":13,"Y":3,"GlyphId":32,"StyleIndex":0,"Width":1,"Glyph":" "},{"X":14,"Y":3,"GlyphId":32,"StyleIndex":0,"Width":1,"Glyph":" "},{"X":15,"Y":3,"GlyphId":32,"StyleIndex":0,"Width":1,"Glyph":" "},{"X":16,"Y":3,"GlyphId":32,"StyleIndex":0,"Width":1,"Glyph":" "},{"X":17,"Y":3,"GlyphId":32,"StyleIndex":0,"Width":1,"Glyph":" "},{"X":18,"Y":3,"GlyphId":32,"StyleIndex":0,"Width":1,"Glyph":" "},{"X":19,"Y":3,"GlyphId":32,"StyleIndex":0,"Width":1,"Glyph":" "},{"X":20,"Y":3,"GlyphId":32,"StyleIndex":0,"Width":1,"Glyph":" "},{"X":21,"Y":3,"GlyphId":32,"StyleIndex":0,"Width":1,"Glyph":" "},{"X":22,"Y":3,"GlyphId":32,"StyleIndex":0,"Width":1,"Glyph":" "},{"X":23,"Y":3,"GlyphId":32,"StyleIndex":0,"Width":1,"Glyph":" "},{"X":24,"Y":3,"GlyphId":32,"StyleIndex":0,"Width":1,"Glyph":" "},{"X":25,"Y":3,"GlyphId":32,"StyleIndex":0,"Width":1,"Glyph":" "},{"X":26,"Y":3,"GlyphId":32,"StyleIndex":0,"Width":1,"Glyph":" "},{"X":27,"Y":3,"GlyphId":32,"StyleIndex":0,"Width":1,"Glyph":" "},{"X":28,"Y":3,"GlyphId":32,"StyleIndex":0,"Width":1,"Glyph":" "},{"X":29,"Y":3,"GlyphId":32,"StyleIndex":0,"Width":1,"Glyph":" "},{"X":0,"Y":4,"GlyphId":32,"StyleIndex":0,"Width":1,"Glyph":" "},{"X":1,"Y":4,"GlyphId":32,"StyleIndex":0,"Width":1,"Glyph":" "},{"X":2,"Y":4,"GlyphId":32,"StyleIndex":0,"Width":1,"Glyph":" "},{"X":3,"Y":4,"GlyphId":32,"StyleIndex":0,"Width":1,"Glyph":" "},{"X":4,"Y":4,"GlyphId":32,"StyleIndex":0,"Width":1,"Glyph":" "},{"X":5,"Y":4,"GlyphId":32,"StyleIndex":0,"Width":1,"Glyph":" "},{"X":6,"Y":4,"GlyphId":32,"StyleIndex":0,"Width":1,"Glyph":" "},{"X":7,"Y":4,"GlyphId":32,"StyleIndex":0,"Width":1,"Glyph":" "},{"X":8,"Y":4,"GlyphId":32,"StyleIndex":0,"Width":1,"Glyph":" "},{"X":9,"Y":4,"GlyphId":32,"StyleIndex":0,"Width":1,"Glyph":" "},{"X":10,"Y":4,"GlyphId":32,"StyleIndex":0,"Width":1,"Glyph":" "},{"X":11,"Y":4,"GlyphId":32,"StyleIndex":0,"Width":1,"Glyph":" "},{"X":12,"Y":4,"GlyphId":32,"StyleIndex":0,"Width":1,"Glyph":" "},{"X":13,"Y":4,"GlyphId":32,"StyleIndex":0,"Width":1,"Glyph":" "},{"X":14,"Y":4,"GlyphId":32,"StyleIndex":0,"Width":1,"Glyph":" "},{"X":15,"Y":4,"GlyphId":32,"StyleIndex":0,"Width":1,"Glyph":" "},{"X":16,"Y":4,"GlyphId":32,"StyleIndex":0,"Width":1,"Glyph":" "},{"X":17,"Y":4,"GlyphId":32,"StyleIndex":0,"Width":1,"Glyph":" "},{"X":18,"Y":4,"GlyphId":32,"StyleIndex":0,"Width":1,"Glyph":" "},{"X":19,"Y":4,"GlyphId":32,"StyleIndex":0,"Width":1,"Glyph":" "},{"X":20,"Y":4,"GlyphId":32,"StyleIndex":0,"Width":1,"Glyph":" "},{"X":21,"Y":4,"GlyphId":32,"StyleIndex":0,"Width":1,"Glyph":" "},{"X":22,"Y":4,"GlyphId":32,"StyleIndex":0,"Width":1,"Glyph":" "},{"X":23,"Y":4,"GlyphId":32,"StyleIndex":0,"Width":1,"Glyph":" "},{"X":24,"Y":4,"GlyphId":32,"StyleIndex":0,"Width":1,"Glyph":" "},{"X":25,"Y":4,"GlyphId":32,"StyleIndex":0,"Width":1,"Glyph":" "},{"X":26,"Y":4,"GlyphId":32,"StyleIndex":0,"Width":1,"Glyph":" "},{"X":27,"Y":4,"GlyphId":32,"StyleIndex":0,"Width":1,"Glyph":" "},{"X":28,"Y":4,"GlyphId":32,"StyleIndex":0,"Width":1,"Glyph":" "},{"X":29,"Y":4,"GlyphId":32,"StyleIndex":0,"Width":1,"Glyph":" "},{"X":0,"Y":5,"GlyphId":32,"StyleIndex":0,"Width":1,"Glyph":" "},{"X":1,"Y":5,"GlyphId":32,"StyleIndex":0,"Width":1,"Glyph":" "},{"X":2,"Y":5,"GlyphId":32,"StyleIndex":0,"Width":1,"Glyph":" "},{"X":3,"Y":5,"GlyphId":32,"StyleIndex":0,"Width":1,"Glyph":" "},{"X":4,"Y":5,"GlyphId":32,"StyleIndex":0,"Width":1,"Glyph":" "},{"X":5,"Y":5,"GlyphId":32,"StyleIndex":0,"Width":1,"Glyph":" "},{"X":6,"Y":5,"GlyphId":32,"StyleIndex":0,"Width":1,"Glyph":" "},{"X":7,"Y":5,"GlyphId":32,"StyleIndex":0,"Width":1,"Glyph":" "},{"X":8,"Y":5,"GlyphId":32,"StyleIndex":0,"Width":1,"Glyph":" "},{"X":9,"Y":5,"GlyphId":32,"StyleIndex":0,"Width":1,"Glyph":" "},{"X":10,"Y":5,"GlyphId":32,"StyleIndex":0,"Width":1,"Glyph":" "},{"X":11,"Y":5,"GlyphId":32,"StyleIndex":0,"Width":1,"Glyph":" "},{"X":12,"Y":5,"GlyphId":32,"StyleIndex":0,"Width":1,"Glyph":" "},{"X":13,"Y":5,"GlyphId":32,"StyleIndex":0,"Width":1,"Glyph":" "},{"X":14,"Y":5,"GlyphId":32,"StyleIndex":0,"Width":1,"Glyph":" "},{"X":15,"Y":5,"GlyphId":32,"StyleIndex":0,"Width":1,"Glyph":" "},{"X":16,"Y":5,"GlyphId":32,"StyleIndex":0,"Width":1,"Glyph":" "},{"X":17,"Y":5,"GlyphId":32,"StyleIndex":0,"Width":1,"Glyph":" "},{"X":18,"Y":5,"GlyphId":32,"StyleIndex":0,"Width":1,"Glyph":" "},{"X":19,"Y":5,"GlyphId":32,"StyleIndex":0,"Width":1,"Glyph":" "},{"X":20,"Y":5,"GlyphId":32,"StyleIndex":0,"Width":1,"Glyph":" "},{"X":21,"Y":5,"GlyphId":32,"StyleIndex":0,"Width":1,"Glyph":" "},{"X":22,"Y":5,"GlyphId":32,"StyleIndex":0,"Width":1,"Glyph":" "},{"X":23,"Y":5,"GlyphId":32,"StyleIndex":0,"Width":1,"Glyph":" "},{"X":24,"Y":5,"GlyphId":32,"StyleIndex":0,"Width":1,"Glyph":" "},{"X":25,"Y":5,"GlyphId":32,"StyleIndex":0,"Width":1,"Glyph":" "},{"X":26,"Y":5,"GlyphId":32,"StyleIndex":0,"Width":1,"Glyph":" "},{"X":27,"Y":5,"GlyphId":32,"StyleIndex":0,"Width":1,"Glyph":" "},{"X":28,"Y":5,"GlyphId":32,"StyleIndex":0,"Width":1,"Glyph":" "},{"X":29,"Y":5,"GlyphId":32,"StyleIndex":0,"Width":1,"Glyph":" "},{"X":0,"Y":6,"GlyphId":32,"StyleIndex":0,"Width":1,"Glyph":" "},{"X":1,"Y":6,"GlyphId":32,"StyleIndex":0,"Width":1,"Glyph":" "},{"X":2,"Y":6,"GlyphId":32,"StyleIndex":0,"Width":1,"Glyph":" "},{"X":3,"Y":6,"GlyphId":32,"StyleIndex":0,"Width":1,"Glyph":" "},{"X":4,"Y":6,"GlyphId":32,"StyleIndex":0,"Width":1,"Glyph":" "},{"X":5,"Y":6,"GlyphId":32,"StyleIndex":0,"Width":1,"Glyph":" "},{"X":6,"Y":6,"GlyphId":32,"StyleIndex":0,"Width":1,"Glyph":" "},{"X":7,"Y":6,"GlyphId":32,"StyleIndex":0,"Width":1,"Glyph":" "},{"X":8,"Y":6,"GlyphId":32,"StyleIndex":0,"Width":1,"Glyph":" "},{"X":9,"Y":6,"GlyphId":32,"StyleIndex":0,"Width":1,"Glyph":" "},{"X":10,"Y":6,"GlyphId":32,"StyleIndex":0,"Width":1,"Glyph":" "},{"X":11,"Y":6,"GlyphId":32,"StyleIndex":0,"Width":1,"Glyph":" "},{"X":12,"Y":6,"GlyphId":32,"StyleIndex":0,"Width":1,"Glyph":" "},{"X":13,"Y":6,"GlyphId":32,"StyleIndex":0,"Width":1,"Glyph":" "},{"X":14,"Y":6,"GlyphId":32,"StyleIndex":0,"Width":1,"Glyph":" "},{"X":15,"Y":6,"GlyphId":32,"StyleIndex":0,"Width":1,"Glyph":" "},{"X":16,"Y":6,"GlyphId":32,"StyleIndex":0,"Width":1,"Glyph":" "},{"X":17,"Y":6,"GlyphId":32,"StyleIndex":0,"Width":1,"Glyph":" "},{"X":18,"Y":6,"GlyphId":32,"StyleIndex":0,"Width":1,"Glyph":" "},{"X":19,"Y":6,"GlyphId":32,"StyleIndex":0,"Width":1,"Glyph":" "},{"X":20,"Y":6,"GlyphId":32,"StyleIndex":0,"Width":1,"Glyph":" "},{"X":21,"Y":6,"GlyphId":32,"StyleIndex":0,"Width":1,"Glyph":" "},{"X":22,"Y":6,"GlyphId":32,"StyleIndex":0,"Width":1,"Glyph":" "},{"X":23,"Y":6,"GlyphId":32,"StyleIndex":0,"Width":1,"Glyph":" "},{"X":24,"Y":6,"GlyphId":32,"StyleIndex":0,"Width":1,"Glyph":" "},{"X":25,"Y":6,"GlyphId":32,"StyleIndex":0,"Width":1,"Glyph":" "},{"X":26,"Y":6,"GlyphId":32,"StyleIndex":0,"Width":1,"Glyph":" "},{"X":27,"Y":6,"GlyphId":32,"StyleIndex":0,"Width":1,"Glyph":" "},{"X":28,"Y":6,"GlyphId":32,"StyleIndex":0,"Width":1,"Glyph":" "},{"X":29,"Y":6,"GlyphId":32,"StyleIndex":0,"Width":1,"Glyph":" "},{"X":0,"Y":7,"GlyphId":32,"StyleIndex":0,"Width":1,"Glyph":" "},{"X":1,"Y":7,"GlyphId":32,"StyleIndex":0,"Width":1,"Glyph":" "},{"X":2,"Y":7,"GlyphId":32,"StyleIndex":0,"Width":1,"Glyph":" "},{"X":3,"Y":7,"GlyphId":32,"StyleIndex":0,"Width":1,"Glyph":" "},{"X":4,"Y":7,"GlyphId":32,"StyleIndex":0,"Width":1,"Glyph":" "},{"X":5,"Y":7,"GlyphId":32,"StyleIndex":0,"Width":1,"Glyph":" "},{"X":6,"Y":7,"GlyphId":32,"StyleIndex":0,"Width":1,"Glyph":" "},{"X":7,"Y":7,"GlyphId":32,"StyleIndex":0,"Width":1,"Glyph":" "},{"X":8,"Y":7,"GlyphId":32,"StyleIndex":0,"Width":1,"Glyph":" "},{"X":9,"Y":7,"GlyphId":32,"StyleIndex":0,"Width":1,"Glyph":" "},{"X":10,"Y":7,"GlyphId":32,"StyleIndex":0,"Width":1,"Glyph":" "},{"X":11,"Y":7,"GlyphId":32,"StyleIndex":0,"Width":1,"Glyph":" "},{"X":12,"Y":7,"GlyphId":32,"StyleIndex":0,"Width":1,"Glyph":" "},{"X":13,"Y":7,"GlyphId":32,"StyleIndex":0,"Width":1,"Glyph":" "},{"X":14,"Y":7,"GlyphId":32,"StyleIndex":0,"Width":1,"Glyph":" "},{"X":15,"Y":7,"GlyphId":32,"StyleIndex":0,"Width":1,"Glyph":" "},{"X":16,"Y":7,"GlyphId":32,"StyleIndex":0,"Width":1,"Glyph":" "},{"X":17,"Y":7,"GlyphId":32,"StyleIndex":0,"Width":1,"Glyph":" "},{"X":18,"Y":7,"GlyphId":32,"StyleIndex":0,"Width":1,"Glyph":" "},{"X":19,"Y":7,"GlyphId":32,"StyleIndex":0,"Width":1,"Glyph":" "},{"X":20,"Y":7,"GlyphId":32,"StyleIndex":0,"Width":1,"Glyph":" "},{"X":21,"Y":7,"GlyphId":32,"StyleIndex":0,"Width":1,"Glyph":" "},{"X":22,"Y":7,"GlyphId":32,"StyleIndex":0,"Width":1,"Glyph":" "},{"X":23,"Y":7,"GlyphId":32,"StyleIndex":0,"Width":1,"Glyph":" "},{"X":24,"Y":7,"GlyphId":32,"StyleIndex":0,"Width":1,"Glyph":" "},{"X":25,"Y":7,"GlyphId":32,"StyleIndex":0,"Width":1,"Glyph":" "},{"X":26,"Y":7,"GlyphId":32,"StyleIndex":0,"Width":1,"Glyph":" "},{"X":27,"Y":7,"GlyphId":32,"StyleIndex":0,"Width":1,"Glyph":" "},{"X":28,"Y":7,"GlyphId":32,"StyleIndex":0,"Width":1,"Glyph":" "},{"X":29,"Y":7,"GlyphId":32,"StyleIndex":0,"Width":1,"Glyph":" "}]}
  ]]></metadata>
  <rect width="100%" height="100%" fill="#ffffff" />
  <g font-family="ui-monospace, SFMono-Regular, Menlo, Monaco, Consolas, Liberation Mono, monospace" font-size="13" text-rendering="optimizeSpeed">
    <rect x="0" y="0" width="10" height="18" fill="#ffffff" />
    <rect x="10" y="0" width="10" height="18" fill="#ffffff" />
    <rect x="20" y="0" width="10" height="18" fill="#ffffff" />
    <rect x="30" y="0" width="10" height="18" fill="#ffffff" />
    <rect x="40" y="0" width="10" height="18" fill="#ffffff" />
    <rect x="50" y="0" width="10" height="18" fill="#ffffff" />
    <rect x="60" y="0" width="10" height="18" fill="#ffffff" />
    <rect x="70" y="0" width="10" height="18" fill="#ffffff" />
    <rect x="80" y="0" width="10" height="18" fill="#ffffff" />
    <rect x="90" y="0" width="10" height="18" fill="#ffffff" />
    <rect x="100" y="0" width="10" height="18" fill="#ffffff" />
    <rect x="110" y="0" width="10" height="18" fill="#ffffff" />
    <rect x="120" y="0" width="10" height="18" fill="#ffffff" />
    <rect x="130" y="0" width="10" height="18" fill="#ffffff" />
    <rect x="140" y="0" width="10" height="18" fill="#ffffff" />
    <rect x="150" y="0" width="10" height="18" fill="#ffffff" />
    <rect x="160" y="0" width="10" height="18" fill="#ffffff" />
    <rect x="170" y="0" width="10" height="18" fill="#ffffff" />
    <rect x="180" y="0" width="10" height="18" fill="#ffffff" />
    <rect x="190" y="0" width="10" height="18" fill="#ffffff" />
    <rect x="200" y="0" width="10" height="18" fill="#ffffff" />
    <rect x="210" y="0" width="10" height="18" fill="#ffffff" />
    <rect x="220" y="0" width="10" height="18" fill="#ffffff" />
    <rect x="230" y="0" width="10" height="18" fill="#ffffff" />
    <rect x="240" y="0" width="10" height="18" fill="#ffffff" />
    <rect x="250" y="0" width="10" height="18" fill="#ffffff" />
    <rect x="260" y="0" width="10" height="18" fill="#ffffff" />
    <rect x="270" y="0" width="10" height="18" fill="#ffffff" />
    <rect x="280" y="0" width="10" height="18" fill="#ffffff" />
    <rect x="290" y="0" width="10" height="18" fill="#ffffff" />
    <rect x="0" y="18" width="10" height="18" fill="#ffffff" />
    <rect x="10" y="18" width="10" height="18" fill="#ffffff" />
    <rect x="20" y="18" width="10" height="18" fill="#ffffff" />
    <rect x="30" y="18" width="10" height="18" fill="#ffffff" />
    <rect x="40" y="18" width="10" height="18" fill="#ffffff" />
    <rect x="50" y="18" width="10" height="18" fill="#ffffff" />
    <rect x="60" y="18" width="10" height="18" fill="#ffffff" />
    <rect x="70" y="18" width="10" height="18" fill="#ffffff" />
    <rect x="80" y="18" width="10" height="18" fill="#ffffff" />
    <rect x="90" y="18" width="10" height="18" fill="#ffffff" />
    <rect x="100" y="18" width="10" height="18" fill="#ffffff" />
    <rect x="110" y="18" width="10" height="18" fill="#ffffff" />
    <rect x="120" y="18" width="10" height="18" fill="#ffffff" />
    <rect x="130" y="18" width="10" height="18" fill="#ffffff" />
    <rect x="140" y="18" width="10" height="18" fill="#ffffff" />
    <rect x="150" y="18" width="10" height="18" fill="#ffffff" />
    <rect x="160" y="18" width="10" height="18" fill="#ffffff" />
    <rect x="170" y="18" width="10" height="18" fill="#ffffff" />
    <rect x="180" y="18" width="10" height="18" fill="#ffffff" />
    <rect x="190" y="18" width="10" height="18" fill="#ffffff" />
    <rect x="200" y="18" width="10" height="18" fill="#ffffff" />
    <rect x="210" y="18" width="10" height="18" fill="#ffffff" />
    <rect x="220" y="18" width="10" height="18" fill="#ffffff" />
    <rect x="230" y="18" width="10" height="18" fill="#ffffff" />
    <rect x="240" y="18" width="10" height="18" fill="#ffffff" />
    <rect x="250" y="18" width="10" height="18" fill="#ffffff" />
    <rect x="260" y="18" width="10" height="18" fill="#ffffff" />
    <rect x="270" y="18" width="10" height="18" fill="#ffffff" />
    <rect x="280" y="18" width="10" height="18" fill="#ffffff" />
    <rect x="290" y="18" width="10" height="18" fill="#ffffff" />
    <rect x="0" y="36" width="10" height="18" fill="#ffffff" />
    <rect x="10" y="36" width="10" height="18" fill="#ffffff" />
    <rect x="20" y="36" width="10" height="18" fill="#ffffff" />
    <rect x="30" y="36" width="10" height="18" fill="#ffffff" />
    <rect x="40" y="36" width="10" height="18" fill="#ffffff" />
    <rect x="50" y="36" width="10" height="18" fill="#ffffff" />
    <rect x="60" y="36" width="10" height="18" fill="#ffffff" />
    <rect x="70" y="36" width="10" height="18" fill="#ffffff" />
    <rect x="80" y="36" width="10" height="18" fill="#ffffff" />
    <rect x="90" y="36" width="10" height="18" fill="#ffffff" />
    <rect x="100" y="36" width="10" height="18" fill="#ffffff" />
    <rect x="110" y="36" width="10" height="18" fill="#ffffff" />
    <rect x="120" y="36" width="10" height="18" fill="#ffffff" />
    <rect x="130" y="36" width="10" height="18" fill="#ffffff" />
    <rect x="140" y="36" width="10" height="18" fill="#ffffff" />
    <rect x="150" y="36" width="10" height="18" fill="#ffffff" />
    <rect x="160" y="36" width="10" height="18" fill="#ffffff" />
    <rect x="170" y="36" width="10" height="18" fill="#ffffff" />
    <rect x="180" y="36" width="10" height="18" fill="#ffffff" />
    <rect x="190" y="36" width="10" height="18" fill="#ffffff" />
    <rect x="200" y="36" width="10" height="18" fill="#ffffff" />
    <rect x="210" y="36" width="10" height="18" fill="#ffffff" />
    <rect x="220" y="36" width="10" height="18" fill="#ffffff" />
    <rect x="230" y="36" width="10" height="18" fill="#ffffff" />
    <rect x="240" y="36" width="10" height="18" fill="#ffffff" />
    <rect x="250" y="36" width="10" height="18" fill="#ffffff" />
    <rect x="260" y="36" width="10" height="18" fill="#ffffff" />
    <rect x="270" y="36" width="10" height="18" fill="#ffffff" />
    <rect x="280" y="36" width="10" height="18" fill="#ffffff" />
    <rect x="290" y="36" width="10" height="18" fill="#ffffff" />
    <rect x="0" y="54" width="10" height="18" fill="#ffffff" />
    <rect x="10" y="54" width="10" height="18" fill="#ffffff" />
    <rect x="20" y="54" width="10" height="18" fill="#ffffff" />
    <rect x="30" y="54" width="10" height="18" fill="#ffffff" />
    <rect x="40" y="54" width="10" height="18" fill="#ffffff" />
    <rect x="50" y="54" width="10" height="18" fill="#ffffff" />
    <rect x="60" y="54" width="10" height="18" fill="#ffffff" />
    <rect x="70" y="54" width="10" height="18" fill="#ffffff" />
    <rect x="80" y="54" width="10" height="18" fill="#ffffff" />
    <rect x="90" y="54" width="10" height="18" fill="#ffffff" />
    <rect x="100" y="54" width="10" height="18" fill="#ffffff" />
    <rect x="110" y="54" width="10" height="18" fill="#ffffff" />
    <rect x="120" y="54" width="10" height="18" fill="#ffffff" />
    <rect x="130" y="54" width="10" height="18" fill="#ffffff" />
    <rect x="140" y="54" width="10" height="18" fill="#ffffff" />
    <rect x="150" y="54" width="10" height="18" fill="#ffffff" />
    <rect x="160" y="54" width="10" height="18" fill="#ffffff" />
    <rect x="170" y="54" width="10" height="18" fill="#ffffff" />
    <rect x="180" y="54" width="10" height="18" fill="#ffffff" />
    <rect x="190" y="54" width="10" height="18" fill="#ffffff" />
    <rect x="200" y="54" width="10" height="18" fill="#ffffff" />
    <rect x="210" y="54" width="10" height="18" fill="#ffffff" />
    <rect x="220" y="54" width="10" height="18" fill="#ffffff" />
    <rect x="230" y="54" width="10" height="18" fill="#ffffff" />
    <rect x="240" y="54" width="10" height="18" fill="#ffffff" />
    <rect x="250" y="54" width="10" height="18" fill="#ffffff" />
    <rect x="260" y="54" width="10" height="18" fill="#ffffff" />
    <rect x="270" y="54" width="10" height="18" fill="#ffffff" />
    <rect x="280" y="54" width="10" height="18" fill="#ffffff" />
    <rect x="290" y="54" width="10" height="18" fill="#ffffff" />
    <rect x="0" y="72" width="10" height="18" fill="#ffffff" />
    <rect x="10" y="72" width="10" height="18" fill="#ffffff" />
    <rect x="20" y="72" width="10" height="18" fill="#ffffff" />
    <rect x="30" y="72" width="10" height="18" fill="#ffffff" />
    <rect x="40" y="72" width="10" height="18" fill="#ffffff" />
    <rect x="50" y="72" width="10" height="18" fill="#ffffff" />
    <rect x="60" y="72" width="10" height="18" fill="#ffffff" />
    <rect x="70" y="72" width="10" height="18" fill="#ffffff" />
    <rect x="80" y="72" width="10" height="18" fill="#ffffff" />
    <rect x="90" y="72" width="10" height="18" fill="#ffffff" />
    <rect x="100" y="72" width="10" height="18" fill="#ffffff" />
    <rect x="110" y="72" width="10" height="18" fill="#ffffff" />
    <rect x="120" y="72" width="10" height="18" fill="#ffffff" />
    <rect x="130" y="72" width="10" height="18" fill="#ffffff" />
    <rect x="140" y="72" width="10" height="18" fill="#ffffff" />
    <rect x="150" y="72" width="10" height="18" fill="#ffffff" />
    <rect x="160" y="72" width="10" height="18" fill="#ffffff" />
    <rect x="170" y="72" width="10" height="18" fill="#ffffff" />
    <rect x="180" y="72" width="10" height="18" fill="#ffffff" />
    <rect x="190" y="72" width="10" height="18" fill="#ffffff" />
    <rect x="200" y="72" width="10" height="18" fill="#ffffff" />
    <rect x="210" y="72" width="10" height="18" fill="#ffffff" />
    <rect x="220" y="72" width="10" height="18" fill="#ffffff" />
    <rect x="230" y="72" width="10" height="18" fill="#ffffff" />
    <rect x="240" y="72" width="10" height="18" fill="#ffffff" />
    <rect x="250" y="72" width="10" height="18" fill="#ffffff" />
    <rect x="260" y="72" width="10" height="18" fill="#ffffff" />
    <rect x="270" y="72" width="10" height="18" fill="#ffffff" />
    <rect x="280" y="72" width="10" height="18" fill="#ffffff" />
    <rect x="290" y="72" width="10" height="18" fill="#ffffff" />
    <rect x="0" y="90" width="10" height="18" fill="#ffffff" />
    <rect x="10" y="90" width="10" height="18" fill="#ffffff" />
    <rect x="20" y="90" width="10" height="18" fill="#ffffff" />
    <rect x="30" y="90" width="10" height="18" fill="#ffffff" />
    <rect x="40" y="90" width="10" height="18" fill="#ffffff" />
    <rect x="50" y="90" width="10" height="18" fill="#ffffff" />
    <rect x="60" y="90" width="10" height="18" fill="#ffffff" />
    <rect x="70" y="90" width="10" height="18" fill="#ffffff" />
    <rect x="80" y="90" width="10" height="18" fill="#ffffff" />
    <rect x="90" y="90" width="10" height="18" fill="#ffffff" />
    <rect x="100" y="90" width="10" height="18" fill="#ffffff" />
    <rect x="110" y="90" width="10" height="18" fill="#ffffff" />
    <rect x="120" y="90" width="10" height="18" fill="#ffffff" />
    <rect x="130" y="90" width="10" height="18" fill="#ffffff" />
    <rect x="140" y="90" width="10" height="18" fill="#ffffff" />
    <rect x="150" y="90" width="10" height="18" fill="#ffffff" />
    <rect x="160" y="90" width="10" height="18" fill="#ffffff" />
    <rect x="170" y="90" width="10" height="18" fill="#ffffff" />
    <rect x="180" y="90" width="10" height="18" fill="#ffffff" />
    <rect x="190" y="90" width="10" height="18" fill="#ffffff" />
    <rect x="200" y="90" width="10" height="18" fill="#ffffff" />
    <rect x="210" y="90" width="10" height="18" fill="#ffffff" />
    <rect x="220" y="90" width="10" height="18" fill="#ffffff" />
    <rect x="230" y="90" width="10" height="18" fill="#ffffff" />
    <rect x="240" y="90" width="10" height="18" fill="#ffffff" />
    <rect x="250" y="90" width="10" height="18" fill="#ffffff" />
    <rect x="260" y="90" width="10" height="18" fill="#ffffff" />
    <rect x="270" y="90" width="10" height="18" fill="#ffffff" />
    <rect x="280" y="90" width="10" height="18" fill="#ffffff" />
    <rect x="290" y="90" width="10" height="18" fill="#ffffff" />
    <rect x="0" y="108" width="10" height="18" fill="#ffffff" />
    <rect x="10" y="108" width="10" height="18" fill="#ffffff" />
    <rect x="20" y="108" width="10" height="18" fill="#ffffff" />
    <rect x="30" y="108" width="10" height="18" fill="#ffffff" />
    <rect x="40" y="108" width="10" height="18" fill="#ffffff" />
    <rect x="50" y="108" width="10" height="18" fill="#ffffff" />
    <rect x="60" y="108" width="10" height="18" fill="#ffffff" />
    <rect x="70" y="108" width="10" height="18" fill="#ffffff" />
    <rect x="80" y="108" width="10" height="18" fill="#ffffff" />
    <rect x="90" y="108" width="10" height="18" fill="#ffffff" />
    <rect x="100" y="108" width="10" height="18" fill="#ffffff" />
    <rect x="110" y="108" width="10" height="18" fill="#ffffff" />
    <rect x="120" y="108" width="10" height="18" fill="#ffffff" />
    <rect x="130" y="108" width="10" height="18" fill="#ffffff" />
    <rect x="140" y="108" width="10" height="18" fill="#ffffff" />
    <rect x="150" y="108" width="10" height="18" fill="#ffffff" />
    <rect x="160" y="108" width="10" height="18" fill="#ffffff" />
    <rect x="170" y="108" width="10" height="18" fill="#ffffff" />
    <rect x="180" y="108" width="10" height="18" fill="#ffffff" />
    <rect x="190" y="108" width="10" height="18" fill="#ffffff" />
    <rect x="200" y="108" width="10" height="18" fill="#ffffff" />
    <rect x="210" y="108" width="10" height="18" fill="#ffffff" />
    <rect x="220" y="108" width="10" height="18" fill="#ffffff" />
    <rect x="230" y="108" width="10" height="18" fill="#ffffff" />
    <rect x="240" y="108" width="10" height="18" fill="#ffffff" />
    <rect x="250" y="108" width="10" height="18" fill="#ffffff" />
    <rect x="260" y="108" width="10" height="18" fill="#ffffff" />
    <rect x="270" y="108" width="10" height="18" fill="#ffffff" />
    <rect x="280" y="108" width="10" height="18" fill="#ffffff" />
    <rect x="290" y="108" width="10" height="18" fill="#ffffff" />
    <rect x="0" y="126" width="10" height="18" fill="#ffffff" />
    <rect x="10" y="126" width="10" height="18" fill="#ffffff" />
    <rect x="20" y="126" width="10" height="18" fill="#ffffff" />
    <rect x="30" y="126" width="10" height="18" fill="#ffffff" />
    <rect x="40" y="126" width="10" height="18" fill="#ffffff" />
    <rect x="50" y="126" width="10" height="18" fill="#ffffff" />
    <rect x="60" y="126" width="10" height="18" fill="#ffffff" />
    <rect x="70" y="126" width="10" height="18" fill="#ffffff" />
    <rect x="80" y="126" width="10" height="18" fill="#ffffff" />
    <rect x="90" y="126" width="10" height="18" fill="#ffffff" />
    <rect x="100" y="126" width="10" height="18" fill="#ffffff" />
    <rect x="110" y="126" width="10" height="18" fill="#ffffff" />
    <rect x="120" y="126" width="10" height="18" fill="#ffffff" />
    <rect x="130" y="126" width="10" height="18" fill="#ffffff" />
    <rect x="140" y="126" width="10" height="18" fill="#ffffff" />
    <rect x="150" y="126" width="10" height="18" fill="#ffffff" />
    <rect x="160" y="126" width="10" height="18" fill="#ffffff" />
    <rect x="170" y="126" width="10" height="18" fill="#ffffff" />
    <rect x="180" y="126" width="10" height="18" fill="#ffffff" />
    <rect x="190" y="126" width="10" height="18" fill="#ffffff" />
    <rect x="200" y="126" width="10" height="18" fill="#ffffff" />
    <rect x="210" y="126" width="10" height="18" fill="#ffffff" />
    <rect x="220" y="126" width="10" height="18" fill="#ffffff" />
    <rect x="230" y="126" width="10" height="18" fill="#ffffff" />
    <rect x="240" y="126" width="10" height="18" fill="#ffffff" />
    <rect x="250" y="126" width="10" height="18" fill="#ffffff" />
    <rect x="260" y="126" width="10" height="18" fill="#ffffff" />
    <rect x="270" y="126" width="10" height="18" fill="#ffffff" />
    <rect x="280" y="126" width="10" height="18" fill="#ffffff" />
    <rect x="290" y="126" width="10" height="18" fill="#ffffff" />
  </g>
</svg>
