<svg xmlns="http://www.w3.org/2000/svg" width="80" height="54" viewBox="0 0 80 54">
  <metadata id="thoth-snapshot" type="application/json"><![CDATA[
{"Width":8,"Height":3,"Cells":[{"X":0,"Y":0,"GlyphId":9556,"StyleIndex":2,"Width":1,"Glyph":"\u2554"},{"X":1,"Y":0,"GlyphId":9552,"StyleIndex":2,"Width":1,"Glyph":"\u2550"},{"X":2,"Y":0,"GlyphId":9552,"StyleIndex":2,"Width":1,"Glyph":"\u2550"},{"X":3,"Y":0,"GlyphId":9552,"StyleIndex":2,"Width":1,"Glyph":"\u2550"},{"X":4,"Y":0,"GlyphId":9552,"StyleIndex":2,"Width":1,"Glyph":"\u2550"},{"X":5,"Y":0,"GlyphId":9552,"StyleIndex":2,"Width":1,"Glyph":"\u2550"},{"X":6,"Y":0,"GlyphId":9552,"StyleIndex":2,"Width":1,"Glyph":"\u2550"},{"X":7,"Y":0,"GlyphId":9559,"StyleIndex":2,"Width":1,"Glyph":"\u2557"},{"X":0,"Y":1,"GlyphId":9553,"StyleIndex":2,"Width":1,"Glyph":"\u2551"},{"X":1,"Y":1,"GlyphId":79,"StyleIndex":3,"Width":1,"Glyph":"O"},{"X":2,"Y":1,"GlyphId":75,"StyleIndex":3,"Width":1,"Glyph":"K"},{"X":3,"Y":1,"GlyphId":32,"StyleIndex":1,"Width":1,"Glyph":" "},{"X":4,"Y":1,"GlyphId":32,"StyleIndex":1,"Width":1,"Glyph":" "},{"X":5,"Y":1,"GlyphId":32,"StyleIndex":1,"Width":1,"Glyph":" "},{"X":6,"Y":1,"GlyphId":32,"StyleIndex":1,"Width":1,"Glyph":" "},{"X":7,"Y":1,"GlyphId":9553,"StyleIndex":2,"Width":1,"Glyph":"\u2551"},{"X":0,"Y":2,"GlyphId":9562,"StyleIndex":2,"Width":1,"Glyph":"\u255A"},{"X":1,"Y":2,"GlyphId":9552,"StyleIndex":2,"Width":1,"Glyph":"\u2550"},{"X":2,"Y":2,"GlyphId":9552,"StyleIndex":2,"Width":1,"Glyph":"\u2550"},{"X":3,"Y":2,"GlyphId":9552,"StyleIndex":2,"Width":1,"Glyph":"\u2550"},{"X":4,"Y":2,"GlyphId":9552,"StyleIndex":2,"Width":1,"Glyph":"\u2550"},{"X":5,"Y":2,"GlyphId":9552,"StyleIndex":2,"Width":1,"Glyph":"\u2550"},{"X":6,"Y":2,"GlyphId":9552,"StyleIndex":2,"Width":1,"Glyph":"\u2550"},{"X":7,"Y":2,"GlyphId":9565,"StyleIndex":2,"Width":1,"Glyph":"\u255D"}]}
  ]]></metadata>
  <rect width="100%" height="100%" fill="#ffffff" />
  <g font-family="ui-monospace, SFMono-Regular, Menlo, Monaco, Consolas, Liberation Mono, monospace" font-size="13" text-rendering="optimizeSpeed">
    <rect x="0" y="0" width="10" height="18" fill="hsl(94, 62%, 82%)" />
    <text x="1" y="13" fill="#111111">╔</text>
    <rect x="10" y="0" width="10" height="18" fill="hsl(94, 62%, 82%)" />
    <text x="11" y="13" fill="#111111">═</text>
    <rect x="20" y="0" width="10" height="18" fill="hsl(94, 62%, 82%)" />
    <text x="21" y="13" fill="#111111">═</text>
    <rect x="30" y="0" width="10" height="18" fill="hsl(94, 62%, 82%)" />
    <text x="31" y="13" fill="#111111">═</text>
    <rect x="40" y="0" width="10" height="18" fill="hsl(94, 62%, 82%)" />
    <text x="41" y="13" fill="#111111">═</text>
    <rect x="50" y="0" width="10" height="18" fill="hsl(94, 62%, 82%)" />
    <text x="51" y="13" fill="#111111">═</text>
    <rect x="60" y="0" width="10" height="18" fill="hsl(94, 62%, 82%)" />
    <text x="61" y="13" fill="#111111">═</text>
    <rect x="70" y="0" width="10" height="18" fill="hsl(94, 62%, 82%)" />
    <text x="71" y="13" fill="#111111">╗</text>
    <rect x="0" y="18" width="10" height="18" fill="hsl(94, 62%, 82%)" />
    <text x="1" y="31" fill="#111111">║</text>
    <rect x="10" y="18" width="10" height="18" fill="hsl(141, 62%, 82%)" />
    <text x="11" y="31" fill="#111111">O</text>
    <rect x="20" y="18" width="10" height="18" fill="hsl(141, 62%, 82%)" />
    <text x="21" y="31" fill="#111111">K</text>
    <rect x="30" y="18" width="10" height="18" fill="hsl(47, 62%, 82%)" />
    <rect x="40" y="18" width="10" height="18" fill="hsl(47, 62%, 82%)" />
    <rect x="50" y="18" width="10" height="18" fill="hsl(47, 62%, 82%)" />
    <rect x="60" y="18" width="10" height="18" fill="hsl(47, 62%, 82%)" />
    <rect x="70" y="18" width="10" height="18" fill="hsl(94, 62%, 82%)" />
    <text x="71" y="31" fill="#111111">║</text>
    <rect x="0" y="36" width="10" height="18" fill="hsl(94, 62%, 82%)" />
    <text x="1" y="49" fill="#111111">╚</text>
    <rect x="10" y="36" width="10" height="18" fill="hsl(94, 62%, 82%)" />
    <text x="11" y="49" fill="#111111">═</text>
    <rect x="20" y="36" width="10" height="18" fill="hsl(94, 62%, 82%)" />
    <text x="21" y="49" fill="#111111">═</text>
    <rect x="30" y="36" width="10" height="18" fill="hsl(94, 62%, 82%)" />
    <text x="31" y="49" fill="#111111">═</text>
    <rect x="40" y="36" width="10" height="18" fill="hsl(94, 62%, 82%)" />
    <text x="41" y="49" fill="#111111">═</text>
    <rect x="50" y="36" width="10" height="18" fill="hsl(94, 62%, 82%)" />
    <text x="51" y="49" fill="#111111">═</text>
    <rect x="60" y="36" width="10" height="18" fill="hsl(94, 62%, 82%)" />
    <text x="61" y="49" fill="#111111">═</text>
    <rect x="70" y="36" width="10" height="18" fill="hsl(94, 62%, 82%)" />
    <text x="71" y="49" fill="#111111">╝</text>
  </g>
</svg>
