<svg xmlns="http://www.w3.org/2000/svg" width="100" height="18" viewBox="0 0 100 18">
  <metadata id="thoth-snapshot" type="application/json"><![CDATA[
{"Width":10,"Height":1,"Cells":[{"X":0,"Y":0,"GlyphId":61,"StyleIndex":0,"Width":1,"Glyph":"="},{"X":1,"Y":0,"GlyphId":61,"StyleIndex":0,"Width":1,"Glyph":"="},{"X":2,"Y":0,"GlyphId":61,"StyleIndex":0,"Width":1,"Glyph":"="},{"X":3,"Y":0,"GlyphId":61,"StyleIndex":0,"Width":1,"Glyph":"="},{"X":4,"Y":0,"GlyphId":61,"StyleIndex":0,"Width":1,"Glyph":"="},{"X":5,"Y":0,"GlyphId":61,"StyleIndex":0,"Width":1,"Glyph":"="},{"X":6,"Y":0,"GlyphId":61,"StyleIndex":0,"Width":1,"Glyph":"="},{"X":7,"Y":0,"GlyphId":61,"StyleIndex":0,"Width":1,"Glyph":"="},{"X":8,"Y":0,"GlyphId":61,"StyleIndex":0,"Width":1,"Glyph":"="},{"X":9,"Y":0,"GlyphId":61,"StyleIndex":0,"Width":1,"Glyph":"="}]}
  ]]></metadata>
  <rect width="100%" height="100%" fill="#ffffff" />
  <g font-family="ui-monospace, SFMono-Regular, Menlo, Monaco, Consolas, Liberation Mono, monospace" font-size="13" text-rendering="optimizeSpeed">
    <rect x="0" y="0" width="10" height="18" fill="#ffffff" />
    <text x="1" y="13" fill="#111111">=</text>
    <rect x="10" y="0" width="10" height="18" fill="#ffffff" />
    <text x="11" y="13" fill="#111111">=</text>
    <rect x="20" y="0" width="10" height="18" fill="#ffffff" />
    <text x="21" y="13" fill="#111111">=</text>
    <rect x="30" y="0" width="10" height="18" fill="#ffffff" />
    <text x="31" y="13" fill="#111111">=</text>
    <rect x="40" y="0" width="10" height="18" fill="#ffffff" />
    <text x="41" y="13" fill="#111111">=</text>
    <rect x="50" y="0" width="10" height="18" fill="#ffffff" />
    <text x="51" y="13" fill="#111111">=</text>
    <rect x="60" y="0" width="10" height="18" fill="#ffffff" />
    <text x="61" y="13" fill="#111111">=</text>
    <rect x="70" y="0" width="10" height="18" fill="#ffffff" />
    <text x="71" y="13" fill="#111111">=</text>
    <rect x="80" y="0" width="10" height="18" fill="#ffffff" />
    <text x="81" y="13" fill="#111111">=</text>
    <rect x="90" y="0" width="10" height="18" fill="#ffffff" />
    <text x="91" y="13" fill="#111111">=</text>
  </g>
</svg>
